<svg width="253" height="27" viewBox="0 0 253 27" fill="none" xmlns="http://www.w3.org/2000/svg">
<path d="M6.69453 26L1.18653 25.964C0.778533 25.964 0.514533 25.7 0.394533 25.172C0.274533 24.836 0.214533 24.356 0.214533 23.732C0.214533 21.644 0.190533 19.784 0.142533 18.152C0.0705333 15.8 0.0345333 13.316 0.0345333 10.7V2.78C0.0345333 2.564 0.130533 2.36 0.322533 2.168C0.538533 1.952 0.754533 1.844 0.970533 1.844L5.14653 1.88C5.93853 1.904 6.93453 1.916 8.13453 1.916C9.93453 1.916 11.3385 1.904 12.3465 1.88L13.6785 1.844C15.1665 1.796 16.3425 1.772 17.2065 1.772C18.6945 1.772 20.1345 2.06 21.5265 2.636C23.1585 3.26 24.4665 4.328 25.4505 5.84C26.6265 7.664 27.2145 9.908 27.2145 12.572C27.2145 15.092 26.9265 17.192 26.3505 18.872C25.7985 20.552 24.9105 21.932 23.6865 23.012C22.4625 24.068 20.8545 24.836 18.8625 25.316C16.8945 25.796 14.4225 26.036 11.4465 26.036L6.69453 26ZM11.7345 21.212C11.8305 21.236 11.9625 21.248 12.1305 21.248C12.3225 21.248 12.5865 21.224 12.9225 21.176C13.0425 21.152 13.1265 21.128 13.1745 21.104C13.2465 21.056 13.3065 21.02 13.3545 20.996C13.6425 20.66 13.9185 19.952 14.1825 18.872C14.3505 18.2 14.5545 17.048 14.7945 15.416C14.9145 14.024 14.9745 12.824 14.9745 11.816V11.132C14.9745 10.508 14.9145 9.572 14.7945 8.324C14.6265 7.076 14.3865 6.2 14.0745 5.696C13.8105 5.36 13.5705 5.192 13.3545 5.192C13.1385 5.192 12.9465 5.216 12.7785 5.264C12.6105 5.312 12.5025 5.348 12.4545 5.372C12.4065 5.396 12.2985 5.456 12.1305 5.552L12.0945 9.872C12.0945 10.256 12.0705 10.832 12.0225 11.6L11.9865 12.464C11.9385 13.664 11.9145 14.528 11.9145 15.056L11.7345 21.212ZM32.3049 25.856C32.2569 25.856 32.2209 25.808 32.1969 25.712C32.0289 25.496 31.9089 25.232 31.8369 24.92C31.7649 24.8 31.7049 24.644 31.6569 24.452C31.4409 24.02 31.2849 23.42 31.1889 22.652C31.0929 21.548 31.0449 20.672 31.0449 20.024C31.0209 19.736 31.0089 19.34 31.0089 18.836V17.972C31.0089 17.252 30.9969 16.688 30.9729 16.28C30.9489 15.848 30.9369 14.996 30.9369 13.724C30.9369 10.316 31.0089 7.688 31.1529 5.84C31.1529 5.552 31.5609 5.336 32.3769 5.192H33.4569H34.3569C35.7249 5.192 36.7449 5.216 37.4169 5.264C38.4249 5.336 39.4449 5.372 40.4769 5.372C40.7169 5.372 40.8969 5.36 41.0169 5.336H41.5569L41.7369 5.48C42.5289 5.312 43.3449 5.204 44.1849 5.156C45.0249 5.108 46.0449 5.084 47.2449 5.084C47.2929 5.084 47.3529 5.12 47.4249 5.192H48.5769C48.7689 5.192 48.9129 5.3 49.0089 5.516C49.1289 5.732 49.2249 6.044 49.2969 6.452C49.3929 6.764 49.4649 7.148 49.5129 7.604C49.6089 8.204 49.6929 8.6 49.7649 8.792C49.7649 9.464 49.6449 9.8 49.4049 9.8C49.3809 9.8 49.3449 9.764 49.2969 9.692L49.1529 9.656C49.0329 9.632 48.9009 9.644 48.7569 9.692C48.6129 9.764 48.4569 9.8 48.2889 9.8C48.1449 9.8 48.0249 9.764 47.9289 9.692C47.8809 9.668 47.7729 9.656 47.6049 9.656C47.3889 9.656 47.1369 9.692 46.8489 9.764C46.7529 9.788 46.5609 9.824 46.2729 9.872C46.0089 9.92 45.6969 9.944 45.3369 9.944C44.3049 9.944 43.5609 9.968 43.1049 10.016C42.8409 10.04 42.5889 10.112 42.3489 10.232V10.16C42.2529 10.16 42.1689 10.28 42.0969 10.52C41.9289 10.928 41.8209 11.492 41.7729 12.212C41.7489 12.428 41.7369 12.668 41.7369 12.932C41.7369 13.196 41.7729 13.376 41.8449 13.472C41.9409 13.568 42.0849 13.616 42.2769 13.616C42.4209 13.616 42.5409 13.568 42.6369 13.472C42.6849 13.472 42.7449 13.484 42.8169 13.508C42.8889 13.532 42.9489 13.568 42.9969 13.616H46.0569C46.0809 13.568 46.1169 13.532 46.1649 13.508C46.2129 13.484 46.2609 13.472 46.3089 13.472C46.5489 13.472 46.7289 13.508 46.8489 13.58C46.9929 13.652 47.2809 13.724 47.7129 13.796C47.9529 13.796 48.1209 13.868 48.2169 14.012C48.3369 14.18 48.3969 14.336 48.3969 14.48L49.1529 16.856C49.2249 17.24 48.8649 17.492 48.0729 17.612C47.6169 17.708 46.7409 17.756 45.4449 17.756H43.8969H42.8169C42.4809 17.756 42.2289 17.78 42.0609 17.828C41.8929 17.852 41.7849 17.936 41.7369 18.08C41.6409 18.2 41.5929 18.392 41.5929 18.656V18.8C41.5929 18.92 41.6049 19.004 41.6289 19.052L41.5929 19.844C41.5689 20.012 41.5569 20.264 41.5569 20.6V20.96V21.284V21.5C42.6369 21.5 43.7409 21.464 44.8689 21.392C45.9729 21.32 47.0649 21.284 48.1449 21.284C48.2169 21.284 48.2769 21.344 48.3249 21.464C48.3729 21.56 48.3969 21.68 48.3969 21.824C48.4449 21.968 48.4689 22.124 48.4689 22.292C48.5169 22.652 48.5889 22.988 48.6849 23.3L48.9369 24.344V25.064V25.172V25.46L48.6489 25.712H48.3969H48.2889C48.0249 25.712 47.8569 25.7 47.7849 25.676C47.7129 25.628 47.6289 25.604 47.5329 25.604C47.4849 25.628 47.4129 25.664 47.3169 25.712C47.2209 25.76 47.1369 25.808 47.0649 25.856V25.676L46.6329 25.712H46.0929C45.9969 25.712 45.9249 25.688 45.8769 25.64L45.5889 25.604C44.7009 25.604 44.0769 25.688 43.7169 25.856H32.3049ZM59.9461 26.108C59.7061 26.108 59.5261 26.084 59.4061 26.036C59.2621 25.988 59.1301 25.964 59.0101 25.964H58.6861C58.4941 25.844 58.3981 25.724 58.3981 25.604L55.5181 15.884C54.8941 13.532 54.2941 10.988 53.7181 8.252C53.7181 8.156 53.7061 8.06 53.6821 7.964C53.6581 7.844 53.6341 7.724 53.6101 7.604C53.5141 7.076 53.4661 6.68 53.4661 6.416C53.4661 6.128 53.4901 5.924 53.5381 5.804C53.6101 5.564 53.7661 5.444 54.0061 5.444H54.7261C55.0141 5.468 55.4101 5.48 55.9141 5.48H56.9941L57.4981 5.516H59.6941C59.7181 5.54 59.7541 5.576 59.8021 5.624C59.8741 5.648 59.9461 5.66 60.0181 5.66C60.0181 5.66 60.0301 5.66 60.0541 5.66C60.0781 5.636 60.1021 5.6 60.1261 5.552L60.4141 5.516H60.5581C60.7981 5.54 61.1341 5.552 61.5661 5.552C61.9741 5.624 62.5981 5.66 63.4381 5.66C63.6061 5.924 63.8101 6.668 64.0501 7.892L64.3741 9.62L64.5901 10.736L64.7701 11.6L64.8781 12.176C65.0701 13.328 65.2501 14.324 65.4181 15.164C65.5381 15.956 65.7181 16.952 65.9581 18.152L66.0301 18.692V18.872C66.0301 18.992 66.0421 19.1 66.0661 19.196C66.0661 19.148 66.0781 19.112 66.1021 19.088C66.1261 19.064 66.1381 19.028 66.1381 18.98C66.1381 18.836 66.1501 18.74 66.1741 18.692L66.2461 18.152C66.3901 17.456 66.5581 16.46 66.7501 15.164L66.9661 13.868C67.0381 13.556 67.0981 13.256 67.1461 12.968C67.1941 12.68 67.2421 12.416 67.2901 12.176C67.3141 11.96 67.3381 11.816 67.3621 11.744C67.3861 11.672 67.3981 11.624 67.3981 11.6C67.4941 11 67.6261 10.34 67.7941 9.62L67.9741 8.756C68.0941 7.988 68.2621 7.22 68.4781 6.452C68.5501 6.14 68.6461 5.876 68.7661 5.66C69.2461 5.66 69.7501 5.624 70.2781 5.552H70.8541L71.1061 5.516H71.1781L71.2141 5.552C71.2381 5.624 71.2621 5.66 71.2861 5.66C71.4541 5.66 71.5381 5.648 71.5381 5.624C71.5381 5.6 71.5381 5.588 71.5381 5.588C71.5621 5.564 71.5741 5.54 71.5741 5.516H73.5541H73.8061L75.1741 5.48C75.5101 5.48 75.7741 5.468 75.9661 5.444H76.6501H77.0461C77.4541 5.444 77.6581 5.84 77.6581 6.632L77.4781 7.604C77.3821 7.988 77.3341 8.204 77.3341 8.252C76.6381 11.54 76.0381 14.084 75.5341 15.884L72.6541 25.604C72.6541 25.652 72.6181 25.712 72.5461 25.784C72.4981 25.856 72.4381 25.916 72.3661 25.964H72.0781C71.9821 25.964 71.8621 25.988 71.7181 26.036C71.6221 26.084 71.5021 26.108 71.3581 26.108C70.9981 26.108 70.7221 26.084 70.5301 26.036C70.1941 25.988 69.9061 25.964 69.6661 25.964C69.6181 26.012 69.4861 26.036 69.2701 26.036C68.9341 26.084 68.2621 26.108 67.2541 26.108H66.1381H65.2381H64.7701H64.4461C64.3741 26.084 64.1101 26.048 63.6541 26H62.8981L62.5381 25.964C62.2261 25.964 61.7821 25.988 61.2061 26.036C60.9181 26.084 60.4981 26.108 59.9461 26.108ZM93.9819 26.864C92.3979 26.864 91.0779 26.792 90.0219 26.648C88.6539 26.456 87.4179 26.108 86.3139 25.604C86.1699 25.532 85.9539 25.424 85.6659 25.28C85.4019 25.112 85.1739 24.956 84.9819 24.812C84.1899 24.14 83.5419 23.384 83.0379 22.544C82.6299 22.112 82.2579 21.512 81.9219 20.744C81.2739 19.064 80.9499 17.06 80.9499 14.732C80.9499 11.996 81.5139 9.596 82.6419 7.532C83.6259 5.564 84.9339 4.028 86.5659 2.924C88.2219 1.796 90.0939 1.16 92.1819 1.016L92.6139 0.979998H93.0819C94.9539 0.979998 96.9699 1.364 99.1299 2.132C99.3219 2.228 99.7419 2.42 100.39 2.708C101.038 2.996 101.638 3.32 102.19 3.68L101.542 8.36L99.4179 7.82C98.6499 7.628 97.9299 7.532 97.2579 7.532C95.9139 7.532 94.9059 8.036 94.2339 9.044C93.5139 10.1 93.1539 11.816 93.1539 14.192C93.1539 14.96 93.1899 15.5 93.2619 15.812C93.3579 17.324 93.6939 18.44 94.2699 19.16C94.8219 19.784 95.4819 20.096 96.2499 20.096C96.9699 20.096 97.7739 19.868 98.6619 19.412C99.4299 19.052 100.27 18.56 101.182 17.936L101.542 23.84C100.606 24.704 99.4059 25.436 97.9419 26.036C96.5499 26.588 95.2299 26.864 93.9819 26.864ZM116.51 26.9C116.318 26.9 116.054 26.876 115.718 26.828C115.55 26.78 115.286 26.756 114.926 26.756C114.014 26.756 112.886 26.552 111.542 26.144H111.29C111.122 26.144 110.942 26.096 110.75 26C110.702 25.952 110.642 25.916 110.57 25.892C110.498 25.844 110.414 25.784 110.318 25.712L109.562 25.28C108.842 24.872 108.206 24.308 107.654 23.588C107.102 22.844 106.658 22.028 106.322 21.14C105.674 19.508 105.35 17.84 105.35 16.136C105.35 14.24 105.734 12.416 106.502 10.664C107.318 8.816 108.41 7.352 109.778 6.272C111.29 5.072 112.97 4.472 114.818 4.472C115.394 4.472 115.838 4.496 116.15 4.544C116.15 4.496 116.186 4.472 116.258 4.472H116.366C118.046 4.472 119.546 4.532 120.866 4.652C121.994 4.82 123.038 5.168 123.998 5.696C125.918 6.968 127.298 8.36 128.138 9.872C129.026 11.552 129.47 13.532 129.47 15.812C129.47 18.092 128.93 20.228 127.85 22.22L127.49 22.796C127.394 22.94 127.334 23.012 127.31 23.012L127.202 23.192L126.95 23.336C125.918 24.872 124.358 25.916 122.27 26.468C120.878 26.756 118.958 26.9 116.51 26.9ZM117.122 24.2C117.338 24.2 117.506 24.068 117.626 23.804C117.914 23.372 118.154 22.532 118.346 21.284C118.37 21.068 118.43 20.588 118.526 19.844C118.622 19.1 118.682 18.404 118.706 17.756C118.802 16.124 118.85 15.116 118.85 14.732V13.904V13.616C118.85 12.752 118.814 12.008 118.742 11.384C118.67 10.4 118.526 9.62 118.31 9.044C118.094 8.756 117.926 8.612 117.806 8.612C117.566 8.612 117.338 8.792 117.122 9.152C116.906 9.512 116.738 10.172 116.618 11.132L115.862 16.892V17.612V18.08C115.934 19.088 115.97 19.748 115.97 20.06L116.042 20.924L116.15 22.076C116.15 22.268 116.174 22.436 116.222 22.58L116.618 23.912C116.642 24.008 116.702 24.08 116.798 24.128C116.918 24.176 117.026 24.2 117.122 24.2ZM136.342 26.108H135.766H135.226H134.938L133.534 25.712L133.462 25.496C133.438 25.496 133.426 25.376 133.426 25.136C133.426 24.824 133.414 24.572 133.39 24.38L133.354 23.012C133.33 22.724 133.318 22.268 133.318 21.644C133.318 21.044 133.306 20.6 133.282 20.312V19.232C133.138 17.72 133.066 16.16 133.066 14.552V14.264V13.724C133.066 13.436 133.078 13.232 133.102 13.112V12.824V12.572C133.078 12.5 133.066 12.38 133.066 12.212V11.816V11.6V11.24V10.664C133.066 10.376 133.078 10.172 133.102 10.052V9.692L133.138 9.512V9.044C133.162 8.804 133.174 8.48 133.174 8.072C133.174 7.76 133.162 7.484 133.138 7.244L133.102 6.416L133.066 6.272C132.994 6.224 132.994 6.188 133.066 6.164C133.162 5.78 133.462 5.504 133.966 5.336C134.206 5.24 134.602 5.192 135.154 5.192C135.562 5.192 136.63 5.156 138.358 5.084C139.222 5.036 139.762 5.012 139.978 5.012C140.338 4.988 140.77 4.976 141.274 4.976C141.514 5 141.682 5.048 141.778 5.12C141.874 5.168 141.958 5.264 142.03 5.408C142.126 5.552 142.198 5.66 142.246 5.732L142.966 6.776C142.942 6.752 143.242 7.184 143.866 8.072C144.442 9.008 145.138 10.064 145.954 11.24C146.074 11.432 146.218 11.648 146.386 11.888C146.554 12.128 146.734 12.404 146.926 12.716V11.456C146.95 11.12 146.962 10.64 146.962 10.016C146.962 9.2 146.986 8.288 147.034 7.28C147.034 7.088 147.046 6.92 147.07 6.776C147.094 6.608 147.106 6.476 147.106 6.38C147.106 6.14 147.118 6.02 147.142 6.02C147.238 5.876 147.406 5.72 147.646 5.552C147.934 5.36 148.234 5.276 148.546 5.3H150.346H150.706C151.066 5.3 151.366 5.312 151.606 5.336H152.686C152.926 5.36 153.286 5.372 153.766 5.372H154.558H154.918C155.398 5.372 155.758 5.456 155.998 5.624C156.142 5.72 156.238 5.852 156.286 6.02C156.334 6.164 156.358 6.392 156.358 6.704C156.358 7.016 156.346 7.28 156.322 7.496C156.298 7.736 156.286 8.024 156.286 8.36V8.612C156.31 8.684 156.322 8.792 156.322 8.936V9.872L156.286 14.012V18.08V19.052C156.286 21.644 156.262 23.288 156.214 23.984L156.106 25.172C155.986 25.724 155.818 26.012 155.602 26.036C155.554 26.036 155.482 26.048 155.386 26.072C155.314 26.096 155.23 26.108 155.134 26.108C154.27 26.108 153.634 26.084 153.226 26.036H151.354H149.482H149.014C148.942 26.06 148.846 26.072 148.726 26.072C148.438 26.072 148.138 26.012 147.826 25.892C147.634 25.844 147.43 25.712 147.214 25.496L144.046 21.032C143.926 20.864 143.698 20.588 143.362 20.204L142.894 19.772C142.774 19.652 142.678 19.592 142.606 19.592C142.534 19.592 142.474 19.628 142.426 19.7C142.378 19.748 142.354 19.796 142.354 19.844V20.456C142.33 20.648 142.318 20.948 142.318 21.356V22.4C142.294 22.664 142.282 23.024 142.282 23.48V24.344V24.884C142.258 24.932 142.246 25.004 142.246 25.1C142.246 25.124 142.21 25.316 142.138 25.676C142.09 25.772 142.054 25.832 142.03 25.856C142.006 25.88 141.922 25.892 141.778 25.892C141.73 25.868 141.682 25.856 141.634 25.856C141.61 25.856 141.586 25.856 141.562 25.856C139.666 26.024 138.094 26.108 136.846 26.108H136.342ZM163.799 26.108H163.223H162.683H162.395L160.991 25.712L160.919 25.496C160.895 25.496 160.883 25.376 160.883 25.136C160.883 24.824 160.871 24.572 160.847 24.38L160.811 23.012C160.787 22.724 160.775 22.268 160.775 21.644C160.775 21.044 160.763 20.6 160.739 20.312V19.232C160.595 17.72 160.523 16.16 160.523 14.552V14.264V13.724C160.523 13.436 160.535 13.232 160.559 13.112V12.824V12.572C160.535 12.5 160.523 12.38 160.523 12.212V11.816V11.6V11.24V10.664C160.523 10.376 160.535 10.172 160.559 10.052V9.692L160.595 9.512V9.044C160.619 8.804 160.631 8.48 160.631 8.072C160.631 7.76 160.619 7.484 160.595 7.244L160.559 6.416L160.523 6.272C160.451 6.224 160.451 6.188 160.523 6.164C160.619 5.78 160.919 5.504 161.423 5.336C161.663 5.24 162.059 5.192 162.611 5.192C163.019 5.192 164.087 5.156 165.815 5.084C166.679 5.036 167.219 5.012 167.435 5.012C167.795 4.988 168.227 4.976 168.731 4.976C168.971 5 169.139 5.048 169.235 5.12C169.331 5.168 169.415 5.264 169.487 5.408C169.583 5.552 169.655 5.66 169.703 5.732L170.423 6.776C170.399 6.752 170.699 7.184 171.323 8.072C171.899 9.008 172.595 10.064 173.411 11.24C173.531 11.432 173.675 11.648 173.843 11.888C174.011 12.128 174.191 12.404 174.383 12.716V11.456C174.407 11.12 174.419 10.64 174.419 10.016C174.419 9.2 174.443 8.288 174.491 7.28C174.491 7.088 174.503 6.92 174.527 6.776C174.551 6.608 174.563 6.476 174.563 6.38C174.563 6.14 174.575 6.02 174.599 6.02C174.695 5.876 174.863 5.72 175.103 5.552C175.391 5.36 175.691 5.276 176.003 5.3H177.803H178.163C178.523 5.3 178.823 5.312 179.063 5.336H180.143C180.383 5.36 180.743 5.372 181.223 5.372H182.015H182.375C182.855 5.372 183.215 5.456 183.455 5.624C183.599 5.72 183.695 5.852 183.743 6.02C183.791 6.164 183.815 6.392 183.815 6.704C183.815 7.016 183.803 7.28 183.779 7.496C183.755 7.736 183.743 8.024 183.743 8.36V8.612C183.767 8.684 183.779 8.792 183.779 8.936V9.872L183.743 14.012V18.08V19.052C183.743 21.644 183.719 23.288 183.671 23.984L183.563 25.172C183.443 25.724 183.275 26.012 183.059 26.036C183.011 26.036 182.939 26.048 182.843 26.072C182.771 26.096 182.687 26.108 182.591 26.108C181.727 26.108 181.091 26.084 180.683 26.036H178.811H176.939H176.471C176.399 26.06 176.303 26.072 176.183 26.072C175.895 26.072 175.595 26.012 175.283 25.892C175.091 25.844 174.887 25.712 174.671 25.496L171.503 21.032C171.383 20.864 171.155 20.588 170.819 20.204L170.351 19.772C170.231 19.652 170.135 19.592 170.063 19.592C169.991 19.592 169.931 19.628 169.883 19.7C169.835 19.748 169.811 19.796 169.811 19.844V20.456C169.787 20.648 169.775 20.948 169.775 21.356V22.4C169.751 22.664 169.739 23.024 169.739 23.48V24.344V24.884C169.715 24.932 169.703 25.004 169.703 25.1C169.703 25.124 169.667 25.316 169.595 25.676C169.547 25.772 169.511 25.832 169.487 25.856C169.463 25.88 169.379 25.892 169.235 25.892C169.187 25.868 169.139 25.856 169.091 25.856C169.067 25.856 169.043 25.856 169.019 25.856C167.123 26.024 165.551 26.108 164.303 26.108H163.799ZM189.348 25.856C189.3 25.856 189.264 25.808 189.24 25.712C189.072 25.496 188.952 25.232 188.88 24.92C188.808 24.8 188.748 24.644 188.7 24.452C188.484 24.02 188.328 23.42 188.232 22.652C188.136 21.548 188.088 20.672 188.088 20.024C188.064 19.736 188.052 19.34 188.052 18.836V17.972C188.052 17.252 188.04 16.688 188.016 16.28C187.992 15.848 187.98 14.996 187.98 13.724C187.98 10.316 188.052 7.688 188.196 5.84C188.196 5.552 188.604 5.336 189.42 5.192H190.5H191.4C192.768 5.192 193.788 5.216 194.46 5.264C195.468 5.336 196.488 5.372 197.52 5.372C197.76 5.372 197.94 5.36 198.06 5.336H198.6L198.78 5.48C199.572 5.312 200.388 5.204 201.228 5.156C202.068 5.108 203.088 5.084 204.288 5.084C204.336 5.084 204.396 5.12 204.468 5.192H205.62C205.812 5.192 205.956 5.3 206.052 5.516C206.172 5.732 206.268 6.044 206.34 6.452C206.436 6.764 206.508 7.148 206.556 7.604C206.652 8.204 206.736 8.6 206.808 8.792C206.808 9.464 206.688 9.8 206.448 9.8C206.424 9.8 206.388 9.764 206.34 9.692L206.196 9.656C206.076 9.632 205.944 9.644 205.8 9.692C205.656 9.764 205.5 9.8 205.332 9.8C205.188 9.8 205.068 9.764 204.972 9.692C204.924 9.668 204.816 9.656 204.648 9.656C204.432 9.656 204.18 9.692 203.892 9.764C203.796 9.788 203.604 9.824 203.316 9.872C203.052 9.92 202.74 9.944 202.38 9.944C201.348 9.944 200.604 9.968 200.148 10.016C199.884 10.04 199.632 10.112 199.392 10.232V10.16C199.296 10.16 199.212 10.28 199.14 10.52C198.972 10.928 198.864 11.492 198.816 12.212C198.792 12.428 198.78 12.668 198.78 12.932C198.78 13.196 198.816 13.376 198.888 13.472C198.984 13.568 199.128 13.616 199.32 13.616C199.464 13.616 199.584 13.568 199.68 13.472C199.728 13.472 199.788 13.484 199.86 13.508C199.932 13.532 199.992 13.568 200.04 13.616H203.1C203.124 13.568 203.16 13.532 203.208 13.508C203.256 13.484 203.304 13.472 203.352 13.472C203.592 13.472 203.772 13.508 203.892 13.58C204.036 13.652 204.324 13.724 204.756 13.796C204.996 13.796 205.164 13.868 205.26 14.012C205.38 14.18 205.44 14.336 205.44 14.48L206.196 16.856C206.268 17.24 205.908 17.492 205.116 17.612C204.66 17.708 203.784 17.756 202.488 17.756H200.94H199.86C199.524 17.756 199.272 17.78 199.104 17.828C198.936 17.852 198.828 17.936 198.78 18.08C198.684 18.2 198.636 18.392 198.636 18.656V18.8C198.636 18.92 198.648 19.004 198.672 19.052L198.636 19.844C198.612 20.012 198.6 20.264 198.6 20.6V20.96V21.284V21.5C199.68 21.5 200.784 21.464 201.912 21.392C203.016 21.32 204.108 21.284 205.188 21.284C205.26 21.284 205.32 21.344 205.368 21.464C205.416 21.56 205.44 21.68 205.44 21.824C205.488 21.968 205.512 22.124 205.512 22.292C205.56 22.652 205.632 22.988 205.728 23.3L205.98 24.344V25.064V25.172V25.46L205.692 25.712H205.44H205.332C205.068 25.712 204.9 25.7 204.828 25.676C204.756 25.628 204.672 25.604 204.576 25.604C204.528 25.628 204.456 25.664 204.36 25.712C204.264 25.76 204.18 25.808 204.108 25.856V25.676L203.676 25.712H203.136C203.04 25.712 202.968 25.688 202.92 25.64L202.632 25.604C201.744 25.604 201.12 25.688 200.76 25.856H189.348ZM221.381 26.864C219.269 26.864 217.529 26.672 216.161 26.288C214.337 25.784 212.921 24.812 211.913 23.372C210.785 21.764 210.221 19.424 210.221 16.352C210.221 14.48 210.473 12.8 210.977 11.312C211.481 9.8 212.213 8.528 213.173 7.496C214.133 6.488 215.249 5.72 216.521 5.192C217.793 4.664 219.173 4.4 220.661 4.4C223.157 4.4 225.749 5.18 228.437 6.74L227.969 10.772L227.141 10.592C227.045 10.568 226.673 10.484 226.025 10.34C225.377 10.196 224.789 10.124 224.261 10.124C223.133 10.124 222.293 10.508 221.741 11.276C221.021 12.236 220.661 13.784 220.661 15.92C220.661 17.672 220.913 18.992 221.417 19.88C221.897 20.624 222.545 20.996 223.361 20.996C223.937 20.996 224.609 20.804 225.377 20.42C226.121 20.06 226.841 19.64 227.537 19.16L227.897 24.272C227.057 25.064 226.025 25.688 224.801 26.144C223.697 26.624 222.557 26.864 221.381 26.864ZM242.612 26.108H240.956H239.084H236.708C236.492 25.772 236.348 25.16 236.276 24.272C236.18 23.48 236.132 22.328 236.132 20.816L236.168 16.856C236.192 15.896 236.204 14.372 236.204 12.284L236.096 12.176H232.532C232.004 12.176 231.656 11.576 231.488 10.376C231.392 9.728 231.344 8.78 231.344 7.532V7.064C231.392 6.896 231.416 6.632 231.416 6.272V5.552L231.452 5.264L231.596 5.12L232.244 5.156H232.964C234.02 5.156 234.824 5.144 235.376 5.12H237.716H238.364H239.588H241.136H242.684C242.996 5.144 243.44 5.156 244.016 5.156H244.916C245.012 5.108 245.168 5.084 245.384 5.084C245.552 5.036 245.708 5.012 245.852 5.012C246.308 5.012 246.656 5.036 246.896 5.084C247.376 5.132 247.736 5.156 247.976 5.156L248.912 5.12H250.316C251.036 5.12 251.528 5.132 251.792 5.156L252.296 5.192C252.32 5.216 252.356 5.252 252.404 5.3C252.452 5.324 252.476 5.348 252.476 5.372V11.492C252.476 11.636 252.392 11.792 252.224 11.96C252.08 12.128 251.936 12.236 251.792 12.284C251 12.116 249.968 12.032 248.696 12.032H247.328C246.968 12.032 246.728 12.488 246.608 13.4C246.56 13.664 246.536 14.048 246.536 14.552V15.632C246.536 16.112 246.548 16.472 246.572 16.712V17.72C246.572 18.704 246.524 19.616 246.428 20.456C246.38 21.08 246.356 21.536 246.356 21.824C246.308 22.112 246.284 22.508 246.284 23.012C246.284 23.732 246.26 24.332 246.212 24.812C246.188 25.556 245.912 25.952 245.384 26C244.808 26.072 244.472 26.108 244.376 26.108H242.612Z" fill="black"/>
</svg>
