<svg width="453" height="109" viewBox="0 0 453 109" fill="none" xmlns="http://www.w3.org/2000/svg">
<path d="M15.552 75L5.76 74.936C5.03467 74.936 4.56533 74.4667 4.352 73.528C4.13867 72.9307 4.032 72.0773 4.032 70.968C4.032 67.256 3.98933 63.9493 3.904 61.048C3.776 56.8667 3.712 52.4507 3.712 47.8V33.72C3.712 33.336 3.88267 32.9733 4.224 32.632C4.608 32.248 4.992 32.056 5.376 32.056L12.8 32.12C14.208 32.1627 15.9787 32.184 18.112 32.184C21.312 32.184 23.808 32.1627 25.6 32.12L27.968 32.056C30.6133 31.9707 32.704 31.928 34.24 31.928C36.8853 31.928 39.4453 32.44 41.92 33.464C44.8213 34.5733 47.1467 36.472 48.896 39.16C50.9867 42.4027 52.032 46.392 52.032 51.128C52.032 55.608 51.52 59.3413 50.496 62.328C49.5147 65.3147 47.936 67.768 45.76 69.688C43.584 71.5653 40.7253 72.9307 37.184 73.784C33.6853 74.6373 29.2907 75.064 24 75.064L15.552 75ZM24.512 66.488C24.6827 66.5307 24.9173 66.552 25.216 66.552C25.5573 66.552 26.0267 66.5093 26.624 66.424C26.8373 66.3813 26.9867 66.3387 27.072 66.296C27.2 66.2107 27.3067 66.1467 27.392 66.104C27.904 65.5067 28.3947 64.248 28.864 62.328C29.1627 61.1333 29.5253 59.0853 29.952 56.184C30.1653 53.7093 30.272 51.576 30.272 49.784V48.568C30.272 47.4587 30.1653 45.7947 29.952 43.576C29.6533 41.3573 29.2267 39.8 28.672 38.904C28.2027 38.3067 27.776 38.008 27.392 38.008C27.008 38.008 26.6667 38.0507 26.368 38.136C26.0693 38.2213 25.8773 38.2853 25.792 38.328C25.7067 38.3707 25.5147 38.4773 25.216 38.648L25.152 46.328C25.152 47.0107 25.1093 48.0347 25.024 49.4L24.96 50.936C24.8747 53.0693 24.832 54.6053 24.832 55.544L24.512 66.488ZM61.0815 74.744C60.9962 74.744 60.9322 74.6587 60.8895 74.488C60.5908 74.104 60.3775 73.6347 60.2495 73.08C60.1215 72.8667 60.0148 72.5893 59.9295 72.248C59.5455 71.48 59.2682 70.4133 59.0975 69.048C58.9268 67.0853 58.8415 65.528 58.8415 64.376C58.7988 63.864 58.7775 63.16 58.7775 62.264V60.728C58.7775 59.448 58.7562 58.4453 58.7135 57.72C58.6708 56.952 58.6495 55.4373 58.6495 53.176C58.6495 47.1173 58.7775 42.4453 59.0335 39.16C59.0335 38.648 59.7588 38.264 61.2095 38.008H63.1295H64.7295C67.1615 38.008 68.9748 38.0507 70.1695 38.136C71.9615 38.264 73.7748 38.328 75.6095 38.328C76.0362 38.328 76.3562 38.3067 76.5695 38.264H77.5295L77.8495 38.52C79.2575 38.2213 80.7082 38.0293 82.2015 37.944C83.6948 37.8587 85.5082 37.816 87.6415 37.816C87.7268 37.816 87.8335 37.88 87.9615 38.008H90.0095C90.3508 38.008 90.6068 38.2 90.7775 38.584C90.9908 38.968 91.1615 39.5227 91.2895 40.248C91.4602 40.8027 91.5882 41.4853 91.6735 42.296C91.8442 43.3627 91.9935 44.0667 92.1215 44.408C92.1215 45.6027 91.9082 46.2 91.4815 46.2C91.4388 46.2 91.3748 46.136 91.2895 46.008L91.0335 45.944C90.8202 45.9013 90.5855 45.9227 90.3295 46.008C90.0735 46.136 89.7962 46.2 89.4975 46.2C89.2415 46.2 89.0282 46.136 88.8575 46.008C88.7722 45.9653 88.5802 45.944 88.2815 45.944C87.8975 45.944 87.4495 46.008 86.9375 46.136C86.7668 46.1787 86.4255 46.2427 85.9135 46.328C85.4442 46.4133 84.8895 46.456 84.2495 46.456C82.4148 46.456 81.0922 46.4987 80.2815 46.584C79.8122 46.6267 79.3642 46.7547 78.9375 46.968V46.84C78.7668 46.84 78.6175 47.0533 78.4895 47.48C78.1908 48.2053 77.9988 49.208 77.9135 50.488C77.8708 50.872 77.8495 51.2987 77.8495 51.768C77.8495 52.2373 77.9135 52.5573 78.0415 52.728C78.2122 52.8987 78.4682 52.984 78.8095 52.984C79.0655 52.984 79.2788 52.8987 79.4495 52.728C79.5348 52.728 79.6415 52.7493 79.7695 52.792C79.8975 52.8347 80.0042 52.8987 80.0895 52.984H85.5295C85.5722 52.8987 85.6362 52.8347 85.7215 52.792C85.8068 52.7493 85.8922 52.728 85.9775 52.728C86.4042 52.728 86.7242 52.792 86.9375 52.92C87.1935 53.048 87.7055 53.176 88.4735 53.304C88.9002 53.304 89.1988 53.432 89.3695 53.688C89.5828 53.9867 89.6895 54.264 89.6895 54.52L91.0335 58.744C91.1615 59.4267 90.5215 59.8747 89.1135 60.088C88.3028 60.2587 86.7455 60.344 84.4415 60.344H81.6895H79.7695C79.1722 60.344 78.7242 60.3867 78.4255 60.472C78.1268 60.5147 77.9348 60.664 77.8495 60.92C77.6788 61.1333 77.5935 61.4747 77.5935 61.944V62.2C77.5935 62.4133 77.6148 62.5627 77.6575 62.648L77.5935 64.056C77.5508 64.3547 77.5295 64.8027 77.5295 65.4V66.04V66.616V67C79.4495 67 81.4122 66.936 83.4175 66.808C85.3802 66.68 87.3215 66.616 89.2415 66.616C89.3695 66.616 89.4762 66.7227 89.5615 66.936C89.6468 67.1067 89.6895 67.32 89.6895 67.576C89.7748 67.832 89.8175 68.1093 89.8175 68.408C89.9028 69.048 90.0308 69.6453 90.2015 70.2L90.6495 72.056V73.336V73.528V74.04L90.1375 74.488H89.6895H89.4975C89.0282 74.488 88.7295 74.4667 88.6015 74.424C88.4735 74.3387 88.3242 74.296 88.1535 74.296C88.0682 74.3387 87.9402 74.4027 87.7695 74.488C87.5988 74.5733 87.4495 74.6587 87.3215 74.744V74.424L86.5535 74.488H85.5935C85.4228 74.488 85.2948 74.4453 85.2095 74.36L84.6975 74.296C83.1188 74.296 82.0095 74.4453 81.3695 74.744H61.0815ZM110.222 75.192C109.795 75.192 109.475 75.1493 109.262 75.064C109.006 74.9787 108.771 74.936 108.558 74.936H107.982C107.64 74.7227 107.47 74.5093 107.47 74.296L102.35 57.016C101.24 52.8347 100.174 48.312 99.1495 43.448C99.1495 43.2773 99.1282 43.1067 99.0855 42.936C99.0428 42.7227 99.0002 42.5093 98.9575 42.296C98.7868 41.3573 98.7015 40.6533 98.7015 40.184C98.7015 39.672 98.7442 39.3093 98.8295 39.096C98.9575 38.6693 99.2348 38.456 99.6615 38.456H100.942C101.454 38.4987 102.158 38.52 103.054 38.52H104.974L105.87 38.584H109.774C109.816 38.6267 109.88 38.6907 109.966 38.776C110.094 38.8187 110.222 38.84 110.35 38.84C110.35 38.84 110.371 38.84 110.414 38.84C110.456 38.7973 110.499 38.7333 110.542 38.648L111.054 38.584H111.31C111.736 38.6267 112.334 38.648 113.102 38.648C113.827 38.776 114.936 38.84 116.43 38.84C116.728 39.3093 117.091 40.632 117.518 42.808L118.094 45.88L118.478 47.864L118.798 49.4L118.99 50.424C119.331 52.472 119.651 54.2427 119.95 55.736C120.163 57.144 120.483 58.9147 120.91 61.048L121.038 62.008V62.328C121.038 62.5413 121.059 62.7333 121.102 62.904C121.102 62.8187 121.123 62.7547 121.166 62.712C121.208 62.6693 121.23 62.6053 121.23 62.52C121.23 62.264 121.251 62.0933 121.294 62.008L121.422 61.048C121.678 59.8107 121.976 58.04 122.318 55.736L122.702 53.432C122.83 52.8773 122.936 52.344 123.022 51.832C123.107 51.32 123.192 50.8507 123.278 50.424C123.32 50.04 123.363 49.784 123.406 49.656C123.448 49.528 123.47 49.4427 123.47 49.4C123.64 48.3333 123.875 47.16 124.174 45.88L124.494 44.344C124.707 42.9787 125.006 41.6133 125.39 40.248C125.518 39.6933 125.688 39.224 125.902 38.84C126.755 38.84 127.651 38.776 128.59 38.648H129.614L130.062 38.584H130.19L130.254 38.648C130.296 38.776 130.339 38.84 130.382 38.84C130.68 38.84 130.83 38.8187 130.83 38.776C130.83 38.7333 130.83 38.712 130.83 38.712C130.872 38.6693 130.894 38.6267 130.894 38.584H134.414H134.862L137.294 38.52C137.891 38.52 138.36 38.4987 138.702 38.456H139.918H140.622C141.347 38.456 141.71 39.16 141.71 40.568L141.39 42.296C141.219 42.9787 141.134 43.3627 141.134 43.448C139.896 49.2933 138.83 53.816 137.934 57.016L132.814 74.296C132.814 74.3813 132.75 74.488 132.622 74.616C132.536 74.744 132.43 74.8507 132.302 74.936H131.79C131.619 74.936 131.406 74.9787 131.15 75.064C130.979 75.1493 130.766 75.192 130.51 75.192C129.87 75.192 129.379 75.1493 129.038 75.064C128.44 74.9787 127.928 74.936 127.502 74.936C127.416 75.0213 127.182 75.064 126.798 75.064C126.2 75.1493 125.006 75.192 123.214 75.192H121.23H119.63H118.798H118.222C118.094 75.1493 117.624 75.0853 116.814 75H115.47L114.83 74.936C114.275 74.936 113.486 74.9787 112.462 75.064C111.95 75.1493 111.203 75.192 110.222 75.192ZM170.73 76.536C167.914 76.536 165.567 76.408 163.69 76.152C161.258 75.8107 159.06 75.192 157.098 74.296C156.842 74.168 156.458 73.976 155.946 73.72C155.476 73.4213 155.071 73.144 154.73 72.888C153.322 71.6933 152.17 70.3493 151.274 68.856C150.548 68.088 149.887 67.0213 149.29 65.656C148.138 62.6693 147.562 59.1067 147.562 54.968C147.562 50.104 148.564 45.8373 150.57 42.168C152.319 38.6693 154.644 35.9387 157.546 33.976C160.49 31.9707 163.818 30.84 167.53 30.584L168.298 30.52H169.13C172.458 30.52 176.042 31.2027 179.882 32.568C180.223 32.7387 180.97 33.08 182.122 33.592C183.274 34.104 184.34 34.68 185.322 35.32L184.17 43.64L180.394 42.68C179.028 42.3387 177.748 42.168 176.554 42.168C174.164 42.168 172.372 43.064 171.178 44.856C169.898 46.7333 169.258 49.784 169.258 54.008C169.258 55.3733 169.322 56.3333 169.45 56.888C169.62 59.576 170.218 61.56 171.242 62.84C172.223 63.9493 173.396 64.504 174.762 64.504C176.042 64.504 177.471 64.0987 179.05 63.288C180.415 62.648 181.908 61.7733 183.53 60.664L184.17 71.16C182.506 72.696 180.372 73.9973 177.77 75.064C175.295 76.0453 172.948 76.536 170.73 76.536ZM210.78 76.6C210.438 76.6 209.969 76.5573 209.372 76.472C209.073 76.3867 208.604 76.344 207.964 76.344C206.342 76.344 204.337 75.9813 201.948 75.256H201.5C201.201 75.256 200.881 75.1707 200.54 75C200.454 74.9147 200.348 74.8507 200.22 74.808C200.092 74.7227 199.942 74.616 199.772 74.488L198.428 73.72C197.148 72.9947 196.017 71.992 195.036 70.712C194.054 69.3893 193.265 67.9387 192.668 66.36C191.516 63.4587 190.94 60.4933 190.94 57.464C190.94 54.0933 191.622 50.8507 192.988 47.736C194.438 44.4507 196.38 41.848 198.812 39.928C201.5 37.7947 204.486 36.728 207.772 36.728C208.796 36.728 209.585 36.7707 210.14 36.856C210.14 36.7707 210.204 36.728 210.332 36.728H210.524C213.51 36.728 216.177 36.8347 218.524 37.048C220.529 37.3467 222.385 37.9653 224.092 38.904C227.505 41.1653 229.958 43.64 231.452 46.328C233.03 49.3147 233.82 52.8347 233.82 56.888C233.82 60.9413 232.86 64.7387 230.94 68.28L230.3 69.304C230.129 69.56 230.022 69.688 229.98 69.688L229.788 70.008L229.34 70.264C227.505 72.9947 224.732 74.8507 221.02 75.832C218.545 76.344 215.132 76.6 210.78 76.6ZM211.868 71.8C212.252 71.8 212.55 71.5653 212.764 71.096C213.276 70.328 213.702 68.8347 214.044 66.616C214.086 66.232 214.193 65.3787 214.364 64.056C214.534 62.7333 214.641 61.496 214.684 60.344C214.854 57.4427 214.94 55.6507 214.94 54.968V53.496V52.984C214.94 51.448 214.876 50.1253 214.748 49.016C214.62 47.2667 214.364 45.88 213.98 44.856C213.596 44.344 213.297 44.088 213.084 44.088C212.657 44.088 212.252 44.408 211.868 45.048C211.484 45.688 211.185 46.8613 210.972 48.568L209.628 58.808V60.088V60.92C209.756 62.712 209.82 63.8853 209.82 64.44L209.948 65.976L210.14 68.024C210.14 68.3653 210.182 68.664 210.268 68.92L210.972 71.288C211.014 71.4587 211.121 71.5867 211.292 71.672C211.505 71.7573 211.697 71.8 211.868 71.8ZM246.036 75.192H245.012H244.052H243.54L241.044 74.488L240.916 74.104C240.873 74.104 240.852 73.8907 240.852 73.464C240.852 72.9093 240.831 72.4613 240.788 72.12L240.724 69.688C240.681 69.176 240.66 68.3653 240.66 67.256C240.66 66.1893 240.639 65.4 240.596 64.888V62.968C240.34 60.28 240.212 57.5067 240.212 54.648V54.136V53.176C240.212 52.664 240.233 52.3013 240.276 52.088V51.576V51.128C240.233 51 240.212 50.7867 240.212 50.488V49.784V49.4V48.76V47.736C240.212 47.224 240.233 46.8613 240.276 46.648V46.008L240.34 45.688V44.856C240.383 44.4293 240.404 43.8533 240.404 43.128C240.404 42.5733 240.383 42.0827 240.34 41.656L240.276 40.184L240.212 39.928C240.084 39.8427 240.084 39.7787 240.212 39.736C240.383 39.0533 240.916 38.5627 241.812 38.264C242.239 38.0933 242.943 38.008 243.924 38.008C244.649 38.008 246.548 37.944 249.62 37.816C251.156 37.7307 252.116 37.688 252.5 37.688C253.14 37.6453 253.908 37.624 254.804 37.624C255.231 37.6667 255.529 37.752 255.7 37.88C255.871 37.9653 256.02 38.136 256.148 38.392C256.319 38.648 256.447 38.84 256.532 38.968L257.812 40.824C257.769 40.7813 258.303 41.5493 259.412 43.128C260.436 44.792 261.673 46.6693 263.124 48.76C263.337 49.1013 263.593 49.4853 263.892 49.912C264.191 50.3387 264.511 50.8293 264.852 51.384V49.144C264.895 48.5467 264.916 47.6933 264.916 46.584C264.916 45.1333 264.959 43.512 265.044 41.72C265.044 41.3787 265.065 41.08 265.108 40.824C265.151 40.5253 265.172 40.2907 265.172 40.12C265.172 39.6933 265.193 39.48 265.236 39.48C265.407 39.224 265.705 38.9467 266.132 38.648C266.644 38.3067 267.177 38.1573 267.732 38.2H270.932H271.572C272.212 38.2 272.745 38.2213 273.172 38.264H275.092C275.519 38.3067 276.159 38.328 277.012 38.328H278.42H279.06C279.913 38.328 280.553 38.4773 280.98 38.776C281.236 38.9467 281.407 39.1813 281.492 39.48C281.577 39.736 281.62 40.1413 281.62 40.696C281.62 41.2507 281.599 41.72 281.556 42.104C281.513 42.5307 281.492 43.0427 281.492 43.64V44.088C281.535 44.216 281.556 44.408 281.556 44.664V46.328L281.492 53.688V60.92V62.648C281.492 67.256 281.449 70.1787 281.364 71.416L281.172 73.528C280.959 74.5093 280.66 75.0213 280.276 75.064C280.191 75.064 280.063 75.0853 279.892 75.128C279.764 75.1707 279.615 75.192 279.444 75.192C277.908 75.192 276.777 75.1493 276.052 75.064H272.724H269.396H268.564C268.436 75.1067 268.265 75.128 268.052 75.128C267.54 75.128 267.007 75.0213 266.452 74.808C266.111 74.7227 265.748 74.488 265.364 74.104L259.732 66.168C259.519 65.8693 259.113 65.3787 258.516 64.696L257.684 63.928C257.471 63.7147 257.3 63.608 257.172 63.608C257.044 63.608 256.937 63.672 256.852 63.8C256.767 63.8853 256.724 63.9707 256.724 64.056V65.144C256.681 65.4853 256.66 66.0187 256.66 66.744V68.6C256.617 69.0693 256.596 69.7093 256.596 70.52V72.056V73.016C256.553 73.1013 256.532 73.2293 256.532 73.4C256.532 73.4427 256.468 73.784 256.34 74.424C256.255 74.5947 256.191 74.7013 256.148 74.744C256.105 74.7867 255.956 74.808 255.7 74.808C255.615 74.7653 255.529 74.744 255.444 74.744C255.401 74.744 255.359 74.744 255.316 74.744C251.945 75.0427 249.151 75.192 246.932 75.192H246.036ZM294.849 75.192H293.825H292.865H292.353L289.857 74.488L289.729 74.104C289.686 74.104 289.665 73.8907 289.665 73.464C289.665 72.9093 289.643 72.4613 289.601 72.12L289.536 69.688C289.494 69.176 289.473 68.3653 289.473 67.256C289.473 66.1893 289.451 65.4 289.409 64.888V62.968C289.153 60.28 289.025 57.5067 289.025 54.648V54.136V53.176C289.025 52.664 289.046 52.3013 289.089 52.088V51.576V51.128C289.046 51 289.025 50.7867 289.025 50.488V49.784V49.4V48.76V47.736C289.025 47.224 289.046 46.8613 289.089 46.648V46.008L289.153 45.688V44.856C289.195 44.4293 289.217 43.8533 289.217 43.128C289.217 42.5733 289.195 42.0827 289.153 41.656L289.089 40.184L289.025 39.928C288.897 39.8427 288.897 39.7787 289.025 39.736C289.195 39.0533 289.729 38.5627 290.625 38.264C291.051 38.0933 291.755 38.008 292.737 38.008C293.462 38.008 295.361 37.944 298.433 37.816C299.969 37.7307 300.929 37.688 301.312 37.688C301.953 37.6453 302.721 37.624 303.617 37.624C304.043 37.6667 304.342 37.752 304.513 37.88C304.683 37.9653 304.833 38.136 304.961 38.392C305.131 38.648 305.259 38.84 305.345 38.968L306.625 40.824C306.582 40.7813 307.115 41.5493 308.225 43.128C309.249 44.792 310.486 46.6693 311.937 48.76C312.15 49.1013 312.406 49.4853 312.705 49.912C313.003 50.3387 313.323 50.8293 313.665 51.384V49.144C313.707 48.5467 313.729 47.6933 313.729 46.584C313.729 45.1333 313.771 43.512 313.857 41.72C313.857 41.3787 313.878 41.08 313.921 40.824C313.963 40.5253 313.985 40.2907 313.985 40.12C313.985 39.6933 314.006 39.48 314.049 39.48C314.219 39.224 314.518 38.9467 314.945 38.648C315.457 38.3067 315.99 38.1573 316.545 38.2H319.745H320.385C321.025 38.2 321.558 38.2213 321.985 38.264H323.905C324.331 38.3067 324.971 38.328 325.825 38.328H327.233H327.873C328.726 38.328 329.366 38.4773 329.793 38.776C330.049 38.9467 330.219 39.1813 330.305 39.48C330.39 39.736 330.433 40.1413 330.433 40.696C330.433 41.2507 330.411 41.72 330.369 42.104C330.326 42.5307 330.305 43.0427 330.305 43.64V44.088C330.347 44.216 330.369 44.408 330.369 44.664V46.328L330.305 53.688V60.92V62.648C330.305 67.256 330.262 70.1787 330.177 71.416L329.985 73.528C329.771 74.5093 329.473 75.0213 329.089 75.064C329.003 75.064 328.875 75.0853 328.705 75.128C328.577 75.1707 328.427 75.192 328.257 75.192C326.721 75.192 325.59 75.1493 324.865 75.064H321.537H318.208H317.377C317.249 75.1067 317.078 75.128 316.865 75.128C316.353 75.128 315.819 75.0213 315.265 74.808C314.923 74.7227 314.561 74.488 314.177 74.104L308.545 66.168C308.331 65.8693 307.926 65.3787 307.329 64.696L306.497 63.928C306.283 63.7147 306.113 63.608 305.985 63.608C305.857 63.608 305.75 63.672 305.665 63.8C305.579 63.8853 305.537 63.9707 305.537 64.056V65.144C305.494 65.4853 305.473 66.0187 305.473 66.744V68.6C305.43 69.0693 305.409 69.7093 305.409 70.52V72.056V73.016C305.366 73.1013 305.345 73.2293 305.345 73.4C305.345 73.4427 305.281 73.784 305.153 74.424C305.067 74.5947 305.003 74.7013 304.961 74.744C304.918 74.7867 304.769 74.808 304.513 74.808C304.427 74.7653 304.342 74.744 304.257 74.744C304.214 74.744 304.171 74.744 304.128 74.744C300.758 75.0427 297.963 75.192 295.745 75.192H294.849ZM340.269 74.744C340.184 74.744 340.12 74.6587 340.077 74.488C339.778 74.104 339.565 73.6347 339.437 73.08C339.309 72.8667 339.202 72.5893 339.117 72.248C338.733 71.48 338.456 70.4133 338.285 69.048C338.114 67.0853 338.029 65.528 338.029 64.376C337.986 63.864 337.965 63.16 337.965 62.264V60.728C337.965 59.448 337.944 58.4453 337.901 57.72C337.858 56.952 337.837 55.4373 337.837 53.176C337.837 47.1173 337.965 42.4453 338.221 39.16C338.221 38.648 338.946 38.264 340.397 38.008H342.317H343.917C346.349 38.008 348.162 38.0507 349.357 38.136C351.149 38.264 352.962 38.328 354.797 38.328C355.224 38.328 355.544 38.3067 355.757 38.264H356.717L357.037 38.52C358.445 38.2213 359.896 38.0293 361.389 37.944C362.882 37.8587 364.696 37.816 366.829 37.816C366.914 37.816 367.021 37.88 367.149 38.008H369.197C369.538 38.008 369.794 38.2 369.965 38.584C370.178 38.968 370.349 39.5227 370.477 40.248C370.648 40.8027 370.776 41.4853 370.861 42.296C371.032 43.3627 371.181 44.0667 371.309 44.408C371.309 45.6027 371.096 46.2 370.669 46.2C370.626 46.2 370.562 46.136 370.477 46.008L370.221 45.944C370.008 45.9013 369.773 45.9227 369.517 46.008C369.261 46.136 368.984 46.2 368.685 46.2C368.429 46.2 368.216 46.136 368.045 46.008C367.96 45.9653 367.768 45.944 367.469 45.944C367.085 45.944 366.637 46.008 366.125 46.136C365.954 46.1787 365.613 46.2427 365.101 46.328C364.632 46.4133 364.077 46.456 363.437 46.456C361.602 46.456 360.28 46.4987 359.469 46.584C359 46.6267 358.552 46.7547 358.125 46.968V46.84C357.954 46.84 357.805 47.0533 357.677 47.48C357.378 48.2053 357.186 49.208 357.101 50.488C357.058 50.872 357.037 51.2987 357.037 51.768C357.037 52.2373 357.101 52.5573 357.229 52.728C357.4 52.8987 357.656 52.984 357.997 52.984C358.253 52.984 358.466 52.8987 358.637 52.728C358.722 52.728 358.829 52.7493 358.957 52.792C359.085 52.8347 359.192 52.8987 359.277 52.984H364.717C364.76 52.8987 364.824 52.8347 364.909 52.792C364.994 52.7493 365.08 52.728 365.165 52.728C365.592 52.728 365.912 52.792 366.125 52.92C366.381 53.048 366.893 53.176 367.661 53.304C368.088 53.304 368.386 53.432 368.557 53.688C368.77 53.9867 368.877 54.264 368.877 54.52L370.221 58.744C370.349 59.4267 369.709 59.8747 368.301 60.088C367.49 60.2587 365.933 60.344 363.629 60.344H360.877H358.957C358.36 60.344 357.912 60.3867 357.613 60.472C357.314 60.5147 357.122 60.664 357.037 60.92C356.866 61.1333 356.781 61.4747 356.781 61.944V62.2C356.781 62.4133 356.802 62.5627 356.845 62.648L356.781 64.056C356.738 64.3547 356.717 64.8027 356.717 65.4V66.04V66.616V67C358.637 67 360.6 66.936 362.605 66.808C364.568 66.68 366.509 66.616 368.429 66.616C368.557 66.616 368.664 66.7227 368.749 66.936C368.834 67.1067 368.877 67.32 368.877 67.576C368.962 67.832 369.005 68.1093 369.005 68.408C369.09 69.048 369.218 69.6453 369.389 70.2L369.837 72.056V73.336V73.528V74.04L369.325 74.488H368.877H368.685C368.216 74.488 367.917 74.4667 367.789 74.424C367.661 74.3387 367.512 74.296 367.341 74.296C367.256 74.3387 367.128 74.4027 366.957 74.488C366.786 74.5733 366.637 74.6587 366.509 74.744V74.424L365.741 74.488H364.781C364.61 74.488 364.482 74.4453 364.397 74.36L363.885 74.296C362.306 74.296 361.197 74.4453 360.557 74.744H340.269ZM397.217 76.536C393.462 76.536 390.369 76.1947 387.937 75.512C384.694 74.616 382.177 72.888 380.385 70.328C378.38 67.4693 377.377 63.3093 377.377 57.848C377.377 54.52 377.825 51.5333 378.721 48.888C379.617 46.2 380.918 43.9387 382.625 42.104C384.332 40.312 386.316 38.9467 388.577 38.008C390.838 37.0693 393.292 36.6 395.937 36.6C400.374 36.6 404.982 37.9867 409.761 40.76L408.929 47.928L407.457 47.608C407.286 47.5653 406.625 47.416 405.473 47.16C404.321 46.904 403.276 46.776 402.337 46.776C400.332 46.776 398.838 47.4587 397.857 48.824C396.577 50.5307 395.937 53.2827 395.937 57.08C395.937 60.1947 396.385 62.5413 397.281 64.12C398.134 65.4427 399.286 66.104 400.737 66.104C401.761 66.104 402.956 65.7627 404.321 65.08C405.644 64.44 406.924 63.6933 408.161 62.84L408.801 71.928C407.308 73.336 405.473 74.4453 403.297 75.256C401.334 76.1093 399.308 76.536 397.217 76.536ZM434.961 75.192H432.017H428.689H424.465C424.081 74.5947 423.825 73.5067 423.697 71.928C423.526 70.52 423.441 68.472 423.441 65.784L423.505 58.744C423.548 57.0373 423.569 54.328 423.569 50.616L423.377 50.424H417.041C416.102 50.424 415.484 49.3573 415.185 47.224C415.014 46.072 414.929 44.3867 414.929 42.168V41.336C415.014 41.0373 415.057 40.568 415.057 39.928V38.648L415.121 38.136L415.377 37.88L416.529 37.944H417.809C419.686 37.944 421.116 37.9227 422.097 37.88H426.257H427.409H429.585H432.337H435.089C435.644 37.9227 436.433 37.944 437.457 37.944H439.057C439.228 37.8587 439.505 37.816 439.889 37.816C440.188 37.7307 440.465 37.688 440.721 37.688C441.532 37.688 442.15 37.7307 442.577 37.816C443.43 37.9013 444.07 37.944 444.497 37.944L446.161 37.88H448.657C449.937 37.88 450.812 37.9013 451.281 37.944L452.177 38.008C452.22 38.0507 452.284 38.1147 452.369 38.2C452.454 38.2427 452.497 38.2853 452.497 38.328V49.208C452.497 49.464 452.348 49.7413 452.049 50.04C451.793 50.3387 451.537 50.5307 451.281 50.616C449.873 50.3173 448.038 50.168 445.777 50.168H443.345C442.705 50.168 442.278 50.9787 442.065 52.6C441.98 53.0693 441.937 53.752 441.937 54.648V56.568C441.937 57.4213 441.958 58.0613 442.001 58.488V60.28C442.001 62.0293 441.916 63.6507 441.745 65.144C441.66 66.2533 441.617 67.064 441.617 67.576C441.532 68.088 441.489 68.792 441.489 69.688C441.489 70.968 441.446 72.0347 441.361 72.888C441.318 74.2107 440.828 74.9147 439.889 75C438.865 75.128 438.268 75.192 438.097 75.192H434.961Z" fill="black"/>
</svg>
