<svg width="90" height="42" viewBox="0 0 90 42" fill="none" xmlns="http://www.w3.org/2000/svg">
<path d="M4.86 24L1.8 23.98C1.57333 23.98 1.42667 23.8333 1.36 23.54C1.29333 23.3533 1.26 23.0867 1.26 22.74C1.26 21.58 1.24667 20.5467 1.22 19.64C1.18 18.3333 1.16 16.9533 1.16 15.5V11.1C1.16 10.98 1.21333 10.8667 1.32 10.76C1.44 10.64 1.56 10.58 1.68 10.58L4 10.6C4.44 10.6133 4.99333 10.62 5.66 10.62C6.66 10.62 7.44 10.6133 8 10.6L8.74 10.58C9.56667 10.5533 10.22 10.54 10.7 10.54C11.5267 10.54 12.3267 10.7 13.1 11.02C14.0067 11.3667 14.7333 11.96 15.28 12.8C15.9333 13.8133 16.26 15.06 16.26 16.54C16.26 17.94 16.1 19.1067 15.78 20.04C15.4733 20.9733 14.98 21.74 14.3 22.34C13.62 22.9267 12.7267 23.3533 11.62 23.62C10.5267 23.8867 9.15333 24.02 7.5 24.02L4.86 24ZM7.66 21.34C7.71333 21.3533 7.78667 21.36 7.88 21.36C7.98667 21.36 8.13333 21.3467 8.32 21.32C8.38667 21.3067 8.43333 21.2933 8.46 21.28C8.5 21.2533 8.53333 21.2333 8.56 21.22C8.72 21.0333 8.87333 20.64 9.02 20.04C9.11333 19.6667 9.22667 19.0267 9.36 18.12C9.42667 17.3467 9.46 16.68 9.46 16.12V15.74C9.46 15.3933 9.42667 14.8733 9.36 14.18C9.26667 13.4867 9.13333 13 8.96 12.72C8.81333 12.5333 8.68 12.44 8.56 12.44C8.44 12.44 8.33333 12.4533 8.24 12.48C8.14667 12.5067 8.08667 12.5267 8.06 12.54C8.03333 12.5533 7.97333 12.5867 7.88 12.64L7.86 15.04C7.86 15.2533 7.84667 15.5733 7.82 16L7.8 16.48C7.77333 17.1467 7.76 17.6267 7.76 17.92L7.66 21.34ZM19.088 23.92C19.0613 23.92 19.0413 23.8933 19.028 23.84C18.9346 23.72 18.868 23.5733 18.828 23.4C18.788 23.3333 18.7546 23.2467 18.728 23.14C18.608 22.9 18.5213 22.5667 18.468 22.14C18.4146 21.5267 18.388 21.04 18.388 20.68C18.3746 20.52 18.368 20.3 18.368 20.02V19.54C18.368 19.14 18.3613 18.8267 18.348 18.6C18.3346 18.36 18.328 17.8867 18.328 17.18C18.328 15.2867 18.368 13.8267 18.448 12.8C18.448 12.64 18.6746 12.52 19.128 12.44H19.728H20.228C20.988 12.44 21.5546 12.4533 21.928 12.48C22.488 12.52 23.0546 12.54 23.628 12.54C23.7613 12.54 23.8613 12.5333 23.928 12.52H24.228L24.328 12.6C24.768 12.5067 25.2213 12.4467 25.688 12.42C26.1546 12.3933 26.7213 12.38 27.388 12.38C27.4146 12.38 27.448 12.4 27.488 12.44H28.128C28.2346 12.44 28.3146 12.5 28.368 12.62C28.4346 12.74 28.488 12.9133 28.528 13.14C28.5813 13.3133 28.6213 13.5267 28.648 13.78C28.7013 14.1133 28.748 14.3333 28.788 14.44C28.788 14.8133 28.7213 15 28.588 15C28.5746 15 28.5546 14.98 28.528 14.94L28.448 14.92C28.3813 14.9067 28.308 14.9133 28.228 14.94C28.148 14.98 28.0613 15 27.968 15C27.888 15 27.8213 14.98 27.768 14.94C27.7413 14.9267 27.6813 14.92 27.588 14.92C27.468 14.92 27.328 14.94 27.168 14.98C27.1146 14.9933 27.008 15.0133 26.848 15.04C26.7013 15.0667 26.528 15.08 26.328 15.08C25.7546 15.08 25.3413 15.0933 25.088 15.12C24.9413 15.1333 24.8013 15.1733 24.668 15.24V15.2C24.6146 15.2 24.568 15.2667 24.528 15.4C24.4346 15.6267 24.3746 15.94 24.348 16.34C24.3346 16.46 24.328 16.5933 24.328 16.74C24.328 16.8867 24.348 16.9867 24.388 17.04C24.4413 17.0933 24.5213 17.12 24.628 17.12C24.708 17.12 24.7746 17.0933 24.828 17.04C24.8546 17.04 24.888 17.0467 24.928 17.06C24.968 17.0733 25.0013 17.0933 25.028 17.12H26.728C26.7413 17.0933 26.7613 17.0733 26.788 17.06C26.8146 17.0467 26.8413 17.04 26.868 17.04C27.0013 17.04 27.1013 17.06 27.168 17.1C27.248 17.14 27.408 17.18 27.648 17.22C27.7813 17.22 27.8746 17.26 27.928 17.34C27.9946 17.4333 28.028 17.52 28.028 17.6L28.448 18.92C28.488 19.1333 28.288 19.2733 27.848 19.34C27.5946 19.3933 27.108 19.42 26.388 19.42H25.528H24.928C24.7413 19.42 24.6013 19.4333 24.508 19.46C24.4146 19.4733 24.3546 19.52 24.328 19.6C24.2746 19.6667 24.248 19.7733 24.248 19.92V20C24.248 20.0667 24.2546 20.1133 24.268 20.14L24.248 20.58C24.2346 20.6733 24.228 20.8133 24.228 21V21.2V21.38V21.5C24.828 21.5 25.4413 21.48 26.068 21.44C26.6813 21.4 27.288 21.38 27.888 21.38C27.928 21.38 27.9613 21.4133 27.988 21.48C28.0146 21.5333 28.028 21.6 28.028 21.68C28.0546 21.76 28.068 21.8467 28.068 21.94C28.0946 22.14 28.1346 22.3267 28.188 22.5L28.328 23.08V23.48V23.54V23.7L28.168 23.84H28.028H27.968C27.8213 23.84 27.728 23.8333 27.688 23.82C27.648 23.7933 27.6013 23.78 27.548 23.78C27.5213 23.7933 27.4813 23.8133 27.428 23.84C27.3746 23.8667 27.328 23.8933 27.288 23.92V23.82L27.048 23.84H26.748C26.6946 23.84 26.6546 23.8267 26.628 23.8L26.468 23.78C25.9746 23.78 25.628 23.8267 25.428 23.92H19.088ZM34.4442 24.06C34.3109 24.06 34.2109 24.0467 34.1442 24.02C34.0642 23.9933 33.9909 23.98 33.9242 23.98H33.7442C33.6376 23.9133 33.5842 23.8467 33.5842 23.78L31.9842 18.38C31.6376 17.0733 31.3042 15.66 30.9842 14.14C30.9842 14.0867 30.9776 14.0333 30.9642 13.98C30.9509 13.9133 30.9376 13.8467 30.9242 13.78C30.8709 13.4867 30.8442 13.2667 30.8442 13.12C30.8442 12.96 30.8576 12.8467 30.8842 12.78C30.9242 12.6467 31.0109 12.58 31.1442 12.58H31.5442C31.7042 12.5933 31.9242 12.6 32.2042 12.6H32.8042L33.0842 12.62H34.3042C34.3176 12.6333 34.3376 12.6533 34.3642 12.68C34.4042 12.6933 34.4442 12.7 34.4842 12.7C34.4842 12.7 34.4909 12.7 34.5042 12.7C34.5176 12.6867 34.5309 12.6667 34.5442 12.64L34.7042 12.62H34.7842C34.9176 12.6333 35.1042 12.64 35.3442 12.64C35.5709 12.68 35.9176 12.7 36.3842 12.7C36.4776 12.8467 36.5909 13.26 36.7242 13.94L36.9042 14.9L37.0242 15.52L37.1242 16L37.1842 16.32C37.2909 16.96 37.3909 17.5133 37.4842 17.98C37.5509 18.42 37.6509 18.9733 37.7842 19.64L37.8242 19.94V20.04C37.8242 20.1067 37.8309 20.1667 37.8442 20.22C37.8442 20.1933 37.8509 20.1733 37.8642 20.16C37.8776 20.1467 37.8842 20.1267 37.8842 20.1C37.8842 20.02 37.8909 19.9667 37.9042 19.94L37.9442 19.64C38.0242 19.2533 38.1176 18.7 38.2242 17.98L38.3442 17.26C38.3842 17.0867 38.4176 16.92 38.4442 16.76C38.4709 16.6 38.4976 16.4533 38.5242 16.32C38.5376 16.2 38.5509 16.12 38.5642 16.08C38.5776 16.04 38.5842 16.0133 38.5842 16C38.6376 15.6667 38.7109 15.3 38.8042 14.9L38.9042 14.42C38.9709 13.9933 39.0642 13.5667 39.1842 13.14C39.2242 12.9667 39.2776 12.82 39.3442 12.7C39.6109 12.7 39.8909 12.68 40.1842 12.64H40.5042L40.6442 12.62H40.6842L40.7042 12.64C40.7176 12.68 40.7309 12.7 40.7442 12.7C40.8376 12.7 40.8842 12.6933 40.8842 12.68C40.8842 12.6667 40.8842 12.66 40.8842 12.66C40.8976 12.6467 40.9042 12.6333 40.9042 12.62H42.0042H42.1442L42.9042 12.6C43.0909 12.6 43.2376 12.5933 43.3442 12.58H43.7242H43.9442C44.1709 12.58 44.2842 12.8 44.2842 13.24L44.1842 13.78C44.1309 13.9933 44.1042 14.1133 44.1042 14.14C43.7176 15.9667 43.3842 17.38 43.1042 18.38L41.5042 23.78C41.5042 23.8067 41.4842 23.84 41.4442 23.88C41.4176 23.92 41.3842 23.9533 41.3442 23.98H41.1842C41.1309 23.98 41.0642 23.9933 40.9842 24.02C40.9309 24.0467 40.8642 24.06 40.7842 24.06C40.5842 24.06 40.4309 24.0467 40.3242 24.02C40.1376 23.9933 39.9776 23.98 39.8442 23.98C39.8176 24.0067 39.7442 24.02 39.6242 24.02C39.4376 24.0467 39.0642 24.06 38.5042 24.06H37.8842H37.3842H37.1242H36.9442C36.9042 24.0467 36.7576 24.0267 36.5042 24H36.0842L35.8842 23.98C35.7109 23.98 35.4642 23.9933 35.1442 24.02C34.9842 24.0467 34.7509 24.06 34.4442 24.06ZM53.353 24.48C52.473 24.48 51.7396 24.44 51.153 24.36C50.393 24.2533 49.7063 24.06 49.093 23.78C49.013 23.74 48.893 23.68 48.733 23.6C48.5863 23.5067 48.4596 23.42 48.353 23.34C47.913 22.9667 47.553 22.5467 47.273 22.08C47.0463 21.84 46.8396 21.5067 46.653 21.08C46.293 20.1467 46.113 19.0333 46.113 17.74C46.113 16.22 46.4263 14.8867 47.053 13.74C47.5996 12.6467 48.3263 11.7933 49.233 11.18C50.153 10.5533 51.193 10.2 52.353 10.12L52.593 10.1H52.853C53.893 10.1 55.013 10.3133 56.213 10.74C56.3196 10.7933 56.553 10.9 56.913 11.06C57.273 11.22 57.6063 11.4 57.913 11.6L57.553 14.2L56.373 13.9C55.9463 13.7933 55.5463 13.74 55.173 13.74C54.4263 13.74 53.8663 14.02 53.493 14.58C53.093 15.1667 52.893 16.12 52.893 17.44C52.893 17.8667 52.913 18.1667 52.953 18.34C53.0063 19.18 53.193 19.8 53.513 20.2C53.8196 20.5467 54.1863 20.72 54.613 20.72C55.013 20.72 55.4596 20.5933 55.953 20.34C56.3796 20.14 56.8463 19.8667 57.353 19.52L57.553 22.8C57.033 23.28 56.3663 23.6867 55.553 24.02C54.7796 24.3267 54.0463 24.48 53.353 24.48ZM65.8686 24.5C65.7619 24.5 65.6153 24.4867 65.4286 24.46C65.3353 24.4333 65.1886 24.42 64.9886 24.42C64.4819 24.42 63.8553 24.3067 63.1086 24.08H62.9686C62.8753 24.08 62.7753 24.0533 62.6686 24C62.6419 23.9733 62.6086 23.9533 62.5686 23.94C62.5286 23.9133 62.4819 23.88 62.4286 23.84L62.0086 23.6C61.6086 23.3733 61.2553 23.06 60.9486 22.66C60.6419 22.2467 60.3953 21.7933 60.2086 21.3C59.8486 20.3933 59.6686 19.4667 59.6686 18.52C59.6686 17.4667 59.8819 16.4533 60.3086 15.48C60.7619 14.4533 61.3686 13.64 62.1286 13.04C62.9686 12.3733 63.9019 12.04 64.9286 12.04C65.2486 12.04 65.4953 12.0533 65.6686 12.08C65.6686 12.0533 65.6886 12.04 65.7286 12.04H65.7886C66.7219 12.04 67.5553 12.0733 68.2886 12.14C68.9153 12.2333 69.4953 12.4267 70.0286 12.72C71.0953 13.4267 71.8619 14.2 72.3286 15.04C72.8219 15.9733 73.0686 17.0733 73.0686 18.34C73.0686 19.6067 72.7686 20.7933 72.1686 21.9L71.9686 22.22C71.9153 22.3 71.8819 22.34 71.8686 22.34L71.8086 22.44L71.6686 22.52C71.0953 23.3733 70.2286 23.9533 69.0686 24.26C68.2953 24.42 67.2286 24.5 65.8686 24.5ZM66.2086 23C66.3286 23 66.4219 22.9267 66.4886 22.78C66.6486 22.54 66.7819 22.0733 66.8886 21.38C66.9019 21.26 66.9353 20.9933 66.9886 20.58C67.0419 20.1667 67.0753 19.78 67.0886 19.42C67.1419 18.5133 67.1686 17.9533 67.1686 17.74V17.28V17.12C67.1686 16.64 67.1486 16.2267 67.1086 15.88C67.0686 15.3333 66.9886 14.9 66.8686 14.58C66.7486 14.42 66.6553 14.34 66.5886 14.34C66.4553 14.34 66.3286 14.44 66.2086 14.64C66.0886 14.84 65.9953 15.2067 65.9286 15.74L65.5086 18.94V19.34V19.6C65.5486 20.16 65.5686 20.5267 65.5686 20.7L65.6086 21.18L65.6686 21.82C65.6686 21.9267 65.6819 22.02 65.7086 22.1L65.9286 22.84C65.9419 22.8933 65.9753 22.9333 66.0286 22.96C66.0953 22.9867 66.1553 23 66.2086 23ZM76.8863 24.06H76.5663H76.2663H76.1063L75.3263 23.84L75.2863 23.72C75.2729 23.72 75.2663 23.6533 75.2663 23.52C75.2663 23.3467 75.2596 23.2067 75.2463 23.1L75.2262 22.34C75.2129 22.18 75.2063 21.9267 75.2063 21.58C75.2063 21.2467 75.1996 21 75.1863 20.84V20.24C75.1063 19.4 75.0663 18.5333 75.0663 17.64V17.48V17.18C75.0663 17.02 75.0729 16.9067 75.0863 16.84V16.68V16.54C75.0729 16.5 75.0663 16.4333 75.0663 16.34V16.12V16V15.8V15.48C75.0663 15.32 75.0729 15.2067 75.0863 15.14V14.94L75.1063 14.84V14.58C75.1196 14.4467 75.1263 14.2667 75.1263 14.04C75.1263 13.8667 75.1196 13.7133 75.1063 13.58L75.0863 13.12L75.0663 13.04C75.0263 13.0133 75.0263 12.9933 75.0663 12.98C75.1196 12.7667 75.2863 12.6133 75.5663 12.52C75.6996 12.4667 75.9196 12.44 76.2263 12.44C76.4529 12.44 77.0463 12.42 78.0063 12.38C78.4863 12.3533 78.7863 12.34 78.9062 12.34C79.1063 12.3267 79.3463 12.32 79.6263 12.32C79.7596 12.3333 79.8529 12.36 79.9063 12.4C79.9596 12.4267 80.0063 12.48 80.0463 12.56C80.0996 12.64 80.1396 12.7 80.1663 12.74L80.5663 13.32C80.5529 13.3067 80.7196 13.5467 81.0663 14.04C81.3863 14.56 81.7729 15.1467 82.2263 15.8C82.2929 15.9067 82.3729 16.0267 82.4663 16.16C82.5596 16.2933 82.6596 16.4467 82.7663 16.62V15.92C82.7796 15.7333 82.7863 15.4667 82.7863 15.12C82.7863 14.6667 82.7996 14.16 82.8263 13.6C82.8263 13.4933 82.8329 13.4 82.8463 13.32C82.8596 13.2267 82.8663 13.1533 82.8663 13.1C82.8663 12.9667 82.8729 12.9 82.8863 12.9C82.9396 12.82 83.0329 12.7333 83.1663 12.64C83.3263 12.5333 83.4929 12.4867 83.6663 12.5H84.6663H84.8663C85.0663 12.5 85.2329 12.5067 85.3663 12.52H85.9663C86.0996 12.5333 86.2996 12.54 86.5663 12.54H87.0063H87.2063C87.4729 12.54 87.6729 12.5867 87.8063 12.68C87.8863 12.7333 87.9396 12.8067 87.9663 12.9C87.9929 12.98 88.0063 13.1067 88.0063 13.28C88.0063 13.4533 87.9996 13.6 87.9863 13.72C87.9729 13.8533 87.9663 14.0133 87.9663 14.2V14.34C87.9796 14.38 87.9863 14.44 87.9863 14.52V15.04L87.9663 17.34V19.6V20.14C87.9663 21.58 87.9529 22.4933 87.9263 22.88L87.8663 23.54C87.7996 23.8467 87.7063 24.0067 87.5863 24.02C87.5596 24.02 87.5196 24.0267 87.4663 24.04C87.4263 24.0533 87.3796 24.06 87.3263 24.06C86.8463 24.06 86.4929 24.0467 86.2663 24.02H85.2263H84.1862H83.9263C83.8863 24.0333 83.8329 24.04 83.7663 24.04C83.6063 24.04 83.4396 24.0067 83.2663 23.94C83.1596 23.9133 83.0463 23.84 82.9263 23.72L81.1663 21.24C81.0996 21.1467 80.9729 20.9933 80.7863 20.78L80.5263 20.54C80.4596 20.4733 80.4063 20.44 80.3663 20.44C80.3263 20.44 80.2929 20.46 80.2663 20.5C80.2396 20.5267 80.2263 20.5533 80.2263 20.58V20.92C80.2129 21.0267 80.2063 21.1933 80.2063 21.42V22C80.1929 22.1467 80.1863 22.3467 80.1863 22.6V23.08V23.38C80.1729 23.4067 80.1663 23.4467 80.1663 23.5C80.1663 23.5133 80.1463 23.62 80.1063 23.82C80.0796 23.8733 80.0596 23.9067 80.0463 23.92C80.0329 23.9333 79.9863 23.94 79.9063 23.94C79.8796 23.9267 79.8529 23.92 79.8263 23.92C79.8129 23.92 79.7996 23.92 79.7862 23.92C78.7329 24.0133 77.8596 24.06 77.1663 24.06H76.8863Z" fill="black"/>
</svg>
