<svg width="492" height="104" viewBox="0 0 492 104" fill="none" xmlns="http://www.w3.org/2000/svg">
<path d="M8.64302 42L3.13502 41.964C2.72702 41.964 2.46302 41.7 2.34302 41.172C2.22302 40.836 2.16302 40.356 2.16302 39.732C2.16302 37.644 2.13902 35.784 2.09102 34.152C2.01902 31.8 1.98302 29.316 1.98302 26.7V18.78C1.98302 18.564 2.07902 18.36 2.27102 18.168C2.48702 17.952 2.70302 17.844 2.91902 17.844L7.09502 17.88C7.88702 17.904 8.88302 17.916 10.083 17.916C11.883 17.916 13.287 17.904 14.295 17.88L15.627 17.844C17.115 17.796 18.291 17.772 19.155 17.772C20.643 17.772 22.083 18.06 23.475 18.636C25.107 19.26 26.415 20.328 27.399 21.84C28.575 23.664 29.163 25.908 29.163 28.572C29.163 31.092 28.875 33.192 28.299 34.872C27.747 36.552 26.859 37.932 25.635 39.012C24.411 40.068 22.803 40.836 20.811 41.316C18.843 41.796 16.371 42.036 13.395 42.036L8.64302 42ZM13.683 37.212C13.779 37.236 13.911 37.248 14.079 37.248C14.271 37.248 14.535 37.224 14.871 37.176C14.991 37.152 15.075 37.128 15.123 37.104C15.195 37.056 15.255 37.02 15.303 36.996C15.591 36.66 15.867 35.952 16.131 34.872C16.299 34.2 16.503 33.048 16.743 31.416C16.863 30.024 16.923 28.824 16.923 27.816V27.132C16.923 26.508 16.863 25.572 16.743 24.324C16.575 23.076 16.335 22.2 16.023 21.696C15.759 21.36 15.519 21.192 15.303 21.192C15.087 21.192 14.895 21.216 14.727 21.264C14.559 21.312 14.451 21.348 14.403 21.372C14.355 21.396 14.247 21.456 14.079 21.552L14.043 25.872C14.043 26.256 14.019 26.832 13.971 27.6L13.935 28.464C13.887 29.664 13.863 30.528 13.863 31.056L13.683 37.212ZM34.2534 41.856C34.2054 41.856 34.1694 41.808 34.1454 41.712C33.9774 41.496 33.8574 41.232 33.7854 40.92C33.7134 40.8 33.6534 40.644 33.6054 40.452C33.3894 40.02 33.2334 39.42 33.1374 38.652C33.0414 37.548 32.9934 36.672 32.9934 36.024C32.9694 35.736 32.9574 35.34 32.9574 34.836V33.972C32.9574 33.252 32.9454 32.688 32.9214 32.28C32.8974 31.848 32.8854 30.996 32.8854 29.724C32.8854 26.316 32.9574 23.688 33.1014 21.84C33.1014 21.552 33.5094 21.336 34.3254 21.192H35.4054H36.3054C37.6734 21.192 38.6934 21.216 39.3654 21.264C40.3734 21.336 41.3934 21.372 42.4254 21.372C42.6654 21.372 42.8454 21.36 42.9654 21.336H43.5054L43.6854 21.48C44.4774 21.312 45.2934 21.204 46.1334 21.156C46.9734 21.108 47.9934 21.084 49.1934 21.084C49.2414 21.084 49.3014 21.12 49.3734 21.192H50.5254C50.7174 21.192 50.8614 21.3 50.9574 21.516C51.0774 21.732 51.1734 22.044 51.2454 22.452C51.3414 22.764 51.4134 23.148 51.4614 23.604C51.5574 24.204 51.6414 24.6 51.7134 24.792C51.7134 25.464 51.5934 25.8 51.3534 25.8C51.3294 25.8 51.2934 25.764 51.2454 25.692L51.1014 25.656C50.9814 25.632 50.8494 25.644 50.7054 25.692C50.5614 25.764 50.4054 25.8 50.2374 25.8C50.0934 25.8 49.9734 25.764 49.8774 25.692C49.8294 25.668 49.7214 25.656 49.5534 25.656C49.3374 25.656 49.0854 25.692 48.7974 25.764C48.7014 25.788 48.5094 25.824 48.2214 25.872C47.9574 25.92 47.6454 25.944 47.2854 25.944C46.2534 25.944 45.5094 25.968 45.0534 26.016C44.7894 26.04 44.5374 26.112 44.2974 26.232V26.16C44.2014 26.16 44.1174 26.28 44.0454 26.52C43.8774 26.928 43.7694 27.492 43.7214 28.212C43.6974 28.428 43.6854 28.668 43.6854 28.932C43.6854 29.196 43.7214 29.376 43.7934 29.472C43.8894 29.568 44.0334 29.616 44.2254 29.616C44.3694 29.616 44.4894 29.568 44.5854 29.472C44.6334 29.472 44.6934 29.484 44.7654 29.508C44.8374 29.532 44.8974 29.568 44.9454 29.616H48.0054C48.0294 29.568 48.0654 29.532 48.1134 29.508C48.1614 29.484 48.2094 29.472 48.2574 29.472C48.4974 29.472 48.6774 29.508 48.7974 29.58C48.9414 29.652 49.2294 29.724 49.6614 29.796C49.9014 29.796 50.0694 29.868 50.1654 30.012C50.2854 30.18 50.3454 30.336 50.3454 30.48L51.1014 32.856C51.1734 33.24 50.8134 33.492 50.0214 33.612C49.5654 33.708 48.6894 33.756 47.3934 33.756H45.8454H44.7654C44.4294 33.756 44.1774 33.78 44.0094 33.828C43.8414 33.852 43.7334 33.936 43.6854 34.08C43.5894 34.2 43.5414 34.392 43.5414 34.656V34.8C43.5414 34.92 43.5534 35.004 43.5774 35.052L43.5414 35.844C43.5174 36.012 43.5054 36.264 43.5054 36.6V36.96V37.284V37.5C44.5854 37.5 45.6894 37.464 46.8174 37.392C47.9214 37.32 49.0134 37.284 50.0934 37.284C50.1654 37.284 50.2254 37.344 50.2734 37.464C50.3214 37.56 50.3454 37.68 50.3454 37.824C50.3934 37.968 50.4174 38.124 50.4174 38.292C50.4654 38.652 50.5374 38.988 50.6334 39.3L50.8854 40.344V41.064V41.172V41.46L50.5974 41.712H50.3454H50.2374C49.9734 41.712 49.8054 41.7 49.7334 41.676C49.6614 41.628 49.5774 41.604 49.4814 41.604C49.4334 41.628 49.3614 41.664 49.2654 41.712C49.1694 41.76 49.0854 41.808 49.0134 41.856V41.676L48.5814 41.712H48.0414C47.9454 41.712 47.8734 41.688 47.8254 41.64L47.5374 41.604C46.6494 41.604 46.0254 41.688 45.6654 41.856H34.2534ZM61.8946 42.108C61.6546 42.108 61.4746 42.084 61.3546 42.036C61.2106 41.988 61.0786 41.964 60.9586 41.964H60.6346C60.4426 41.844 60.3466 41.724 60.3466 41.604L57.4666 31.884C56.8426 29.532 56.2426 26.988 55.6666 24.252C55.6666 24.156 55.6546 24.06 55.6306 23.964C55.6066 23.844 55.5826 23.724 55.5586 23.604C55.4626 23.076 55.4146 22.68 55.4146 22.416C55.4146 22.128 55.4386 21.924 55.4866 21.804C55.5586 21.564 55.7146 21.444 55.9546 21.444H56.6746C56.9626 21.468 57.3586 21.48 57.8626 21.48H58.9426L59.4466 21.516H61.6426C61.6666 21.54 61.7026 21.576 61.7506 21.624C61.8226 21.648 61.8946 21.66 61.9666 21.66C61.9666 21.66 61.9786 21.66 62.0026 21.66C62.0266 21.636 62.0506 21.6 62.0746 21.552L62.3626 21.516H62.5066C62.7466 21.54 63.0826 21.552 63.5146 21.552C63.9226 21.624 64.5466 21.66 65.3866 21.66C65.5546 21.924 65.7586 22.668 65.9986 23.892L66.3226 25.62L66.5386 26.736L66.7186 27.6L66.8266 28.176C67.0186 29.328 67.1986 30.324 67.3666 31.164C67.4866 31.956 67.6666 32.952 67.9066 34.152L67.9786 34.692V34.872C67.9786 34.992 67.9906 35.1 68.0146 35.196C68.0146 35.148 68.0266 35.112 68.0506 35.088C68.0746 35.064 68.0866 35.028 68.0866 34.98C68.0866 34.836 68.0986 34.74 68.1226 34.692L68.1946 34.152C68.3386 33.456 68.5066 32.46 68.6986 31.164L68.9146 29.868C68.9866 29.556 69.0466 29.256 69.0946 28.968C69.1426 28.68 69.1906 28.416 69.2386 28.176C69.2626 27.96 69.2866 27.816 69.3106 27.744C69.3346 27.672 69.3466 27.624 69.3466 27.6C69.4426 27 69.5746 26.34 69.7426 25.62L69.9226 24.756C70.0426 23.988 70.2106 23.22 70.4266 22.452C70.4986 22.14 70.5946 21.876 70.7146 21.66C71.1946 21.66 71.6986 21.624 72.2266 21.552H72.8026L73.0546 21.516H73.1266L73.1626 21.552C73.1866 21.624 73.2106 21.66 73.2346 21.66C73.4026 21.66 73.4866 21.648 73.4866 21.624C73.4866 21.6 73.4866 21.588 73.4866 21.588C73.5106 21.564 73.5226 21.54 73.5226 21.516H75.5026H75.7546L77.1226 21.48C77.4586 21.48 77.7226 21.468 77.9146 21.444H78.5986H78.9946C79.4026 21.444 79.6066 21.84 79.6066 22.632L79.4266 23.604C79.3306 23.988 79.2826 24.204 79.2826 24.252C78.5866 27.54 77.9866 30.084 77.4826 31.884L74.6026 41.604C74.6026 41.652 74.5666 41.712 74.4946 41.784C74.4466 41.856 74.3866 41.916 74.3146 41.964H74.0266C73.9306 41.964 73.8106 41.988 73.6666 42.036C73.5706 42.084 73.4506 42.108 73.3066 42.108C72.9466 42.108 72.6706 42.084 72.4786 42.036C72.1426 41.988 71.8546 41.964 71.6146 41.964C71.5666 42.012 71.4346 42.036 71.2186 42.036C70.8826 42.084 70.2106 42.108 69.2026 42.108H68.0866H67.1866H66.7186H66.3946C66.3226 42.084 66.0586 42.048 65.6026 42H64.8466L64.4866 41.964C64.1746 41.964 63.7306 41.988 63.1546 42.036C62.8666 42.084 62.4466 42.108 61.8946 42.108ZM95.9304 42.864C94.3464 42.864 93.0264 42.792 91.9704 42.648C90.6024 42.456 89.3664 42.108 88.2624 41.604C88.1184 41.532 87.9024 41.424 87.6144 41.28C87.3504 41.112 87.1224 40.956 86.9304 40.812C86.1384 40.14 85.4904 39.384 84.9864 38.544C84.5784 38.112 84.2064 37.512 83.8704 36.744C83.2224 35.064 82.8984 33.06 82.8984 30.732C82.8984 27.996 83.4624 25.596 84.5904 23.532C85.5744 21.564 86.8824 20.028 88.5144 18.924C90.1704 17.796 92.0424 17.16 94.1304 17.016L94.5624 16.98H95.0304C96.9024 16.98 98.9184 17.364 101.078 18.132C101.27 18.228 101.69 18.42 102.338 18.708C102.986 18.996 103.586 19.32 104.138 19.68L103.49 24.36L101.366 23.82C100.598 23.628 99.8784 23.532 99.2064 23.532C97.8624 23.532 96.8544 24.036 96.1824 25.044C95.4624 26.1 95.1024 27.816 95.1024 30.192C95.1024 30.96 95.1384 31.5 95.2104 31.812C95.3064 33.324 95.6424 34.44 96.2184 35.16C96.7704 35.784 97.4304 36.096 98.1984 36.096C98.9184 36.096 99.7224 35.868 100.61 35.412C101.378 35.052 102.218 34.56 103.13 33.936L103.49 39.84C102.554 40.704 101.354 41.436 99.8904 42.036C98.4984 42.588 97.1784 42.864 95.9304 42.864ZM118.458 42.9C118.266 42.9 118.002 42.876 117.666 42.828C117.498 42.78 117.234 42.756 116.874 42.756C115.962 42.756 114.834 42.552 113.49 42.144H113.238C113.07 42.144 112.89 42.096 112.698 42C112.65 41.952 112.59 41.916 112.518 41.892C112.446 41.844 112.362 41.784 112.266 41.712L111.51 41.28C110.79 40.872 110.154 40.308 109.602 39.588C109.05 38.844 108.606 38.028 108.27 37.14C107.622 35.508 107.298 33.84 107.298 32.136C107.298 30.24 107.682 28.416 108.45 26.664C109.266 24.816 110.358 23.352 111.726 22.272C113.238 21.072 114.918 20.472 116.766 20.472C117.342 20.472 117.786 20.496 118.098 20.544C118.098 20.496 118.134 20.472 118.206 20.472H118.314C119.994 20.472 121.494 20.532 122.814 20.652C123.942 20.82 124.986 21.168 125.946 21.696C127.866 22.968 129.246 24.36 130.086 25.872C130.974 27.552 131.418 29.532 131.418 31.812C131.418 34.092 130.878 36.228 129.798 38.22L129.438 38.796C129.342 38.94 129.282 39.012 129.258 39.012L129.15 39.192L128.898 39.336C127.866 40.872 126.306 41.916 124.218 42.468C122.826 42.756 120.906 42.9 118.458 42.9ZM119.07 40.2C119.286 40.2 119.454 40.068 119.574 39.804C119.862 39.372 120.102 38.532 120.294 37.284C120.318 37.068 120.378 36.588 120.474 35.844C120.57 35.1 120.63 34.404 120.654 33.756C120.75 32.124 120.798 31.116 120.798 30.732V29.904V29.616C120.798 28.752 120.762 28.008 120.69 27.384C120.618 26.4 120.474 25.62 120.258 25.044C120.042 24.756 119.874 24.612 119.754 24.612C119.514 24.612 119.286 24.792 119.07 25.152C118.854 25.512 118.686 26.172 118.566 27.132L117.81 32.892V33.612V34.08C117.882 35.088 117.918 35.748 117.918 36.06L117.99 36.924L118.098 38.076C118.098 38.268 118.122 38.436 118.17 38.58L118.566 39.912C118.59 40.008 118.65 40.08 118.746 40.128C118.866 40.176 118.974 40.2 119.07 40.2ZM138.29 42.108H137.714H137.174H136.886L135.482 41.712L135.41 41.496C135.386 41.496 135.374 41.376 135.374 41.136C135.374 40.824 135.362 40.572 135.338 40.38L135.302 39.012C135.278 38.724 135.266 38.268 135.266 37.644C135.266 37.044 135.254 36.6 135.23 36.312V35.232C135.086 33.72 135.014 32.16 135.014 30.552V30.264V29.724C135.014 29.436 135.026 29.232 135.05 29.112V28.824V28.572C135.026 28.5 135.014 28.38 135.014 28.212V27.816V27.6V27.24V26.664C135.014 26.376 135.026 26.172 135.05 26.052V25.692L135.086 25.512V25.044C135.11 24.804 135.122 24.48 135.122 24.072C135.122 23.76 135.11 23.484 135.086 23.244L135.05 22.416L135.014 22.272C134.942 22.224 134.942 22.188 135.014 22.164C135.11 21.78 135.41 21.504 135.914 21.336C136.154 21.24 136.55 21.192 137.102 21.192C137.51 21.192 138.578 21.156 140.306 21.084C141.17 21.036 141.71 21.012 141.926 21.012C142.286 20.988 142.718 20.976 143.222 20.976C143.462 21 143.63 21.048 143.726 21.12C143.822 21.168 143.906 21.264 143.978 21.408C144.074 21.552 144.146 21.66 144.194 21.732L144.914 22.776C144.89 22.752 145.19 23.184 145.814 24.072C146.39 25.008 147.086 26.064 147.902 27.24C148.022 27.432 148.166 27.648 148.334 27.888C148.502 28.128 148.682 28.404 148.874 28.716V27.456C148.898 27.12 148.91 26.64 148.91 26.016C148.91 25.2 148.934 24.288 148.982 23.28C148.982 23.088 148.994 22.92 149.018 22.776C149.042 22.608 149.054 22.476 149.054 22.38C149.054 22.14 149.066 22.02 149.09 22.02C149.186 21.876 149.354 21.72 149.594 21.552C149.882 21.36 150.182 21.276 150.494 21.3H152.294H152.654C153.014 21.3 153.314 21.312 153.554 21.336H154.634C154.874 21.36 155.234 21.372 155.714 21.372H156.506H156.866C157.346 21.372 157.706 21.456 157.946 21.624C158.09 21.72 158.186 21.852 158.234 22.02C158.282 22.164 158.306 22.392 158.306 22.704C158.306 23.016 158.294 23.28 158.27 23.496C158.246 23.736 158.234 24.024 158.234 24.36V24.612C158.258 24.684 158.27 24.792 158.27 24.936V25.872L158.234 30.012V34.08V35.052C158.234 37.644 158.21 39.288 158.162 39.984L158.054 41.172C157.934 41.724 157.766 42.012 157.55 42.036C157.502 42.036 157.43 42.048 157.334 42.072C157.262 42.096 157.178 42.108 157.082 42.108C156.218 42.108 155.582 42.084 155.174 42.036H153.302H151.43H150.962C150.89 42.06 150.794 42.072 150.674 42.072C150.386 42.072 150.086 42.012 149.774 41.892C149.582 41.844 149.378 41.712 149.162 41.496L145.994 37.032C145.874 36.864 145.646 36.588 145.31 36.204L144.842 35.772C144.722 35.652 144.626 35.592 144.554 35.592C144.482 35.592 144.422 35.628 144.374 35.7C144.326 35.748 144.302 35.796 144.302 35.844V36.456C144.278 36.648 144.266 36.948 144.266 37.356V38.4C144.242 38.664 144.23 39.024 144.23 39.48V40.344V40.884C144.206 40.932 144.194 41.004 144.194 41.1C144.194 41.124 144.158 41.316 144.086 41.676C144.038 41.772 144.002 41.832 143.978 41.856C143.954 41.88 143.87 41.892 143.726 41.892C143.678 41.868 143.63 41.856 143.582 41.856C143.558 41.856 143.534 41.856 143.51 41.856C141.614 42.024 140.042 42.108 138.794 42.108H138.29ZM165.747 42.108H165.171H164.631H164.343L162.939 41.712L162.867 41.496C162.843 41.496 162.831 41.376 162.831 41.136C162.831 40.824 162.819 40.572 162.795 40.38L162.759 39.012C162.735 38.724 162.723 38.268 162.723 37.644C162.723 37.044 162.711 36.6 162.687 36.312V35.232C162.543 33.72 162.471 32.16 162.471 30.552V30.264V29.724C162.471 29.436 162.483 29.232 162.507 29.112V28.824V28.572C162.483 28.5 162.471 28.38 162.471 28.212V27.816V27.6V27.24V26.664C162.471 26.376 162.483 26.172 162.507 26.052V25.692L162.543 25.512V25.044C162.567 24.804 162.579 24.48 162.579 24.072C162.579 23.76 162.567 23.484 162.543 23.244L162.507 22.416L162.471 22.272C162.399 22.224 162.399 22.188 162.471 22.164C162.567 21.78 162.867 21.504 163.371 21.336C163.611 21.24 164.007 21.192 164.559 21.192C164.967 21.192 166.035 21.156 167.763 21.084C168.627 21.036 169.167 21.012 169.383 21.012C169.743 20.988 170.175 20.976 170.679 20.976C170.919 21 171.087 21.048 171.183 21.12C171.279 21.168 171.363 21.264 171.435 21.408C171.531 21.552 171.603 21.66 171.651 21.732L172.371 22.776C172.347 22.752 172.647 23.184 173.271 24.072C173.847 25.008 174.543 26.064 175.359 27.24C175.479 27.432 175.623 27.648 175.791 27.888C175.959 28.128 176.139 28.404 176.331 28.716V27.456C176.355 27.12 176.367 26.64 176.367 26.016C176.367 25.2 176.391 24.288 176.439 23.28C176.439 23.088 176.451 22.92 176.475 22.776C176.499 22.608 176.511 22.476 176.511 22.38C176.511 22.14 176.523 22.02 176.547 22.02C176.643 21.876 176.811 21.72 177.051 21.552C177.339 21.36 177.639 21.276 177.951 21.3H179.751H180.111C180.471 21.3 180.771 21.312 181.011 21.336H182.091C182.331 21.36 182.691 21.372 183.171 21.372H183.963H184.323C184.803 21.372 185.163 21.456 185.403 21.624C185.547 21.72 185.643 21.852 185.691 22.02C185.739 22.164 185.763 22.392 185.763 22.704C185.763 23.016 185.751 23.28 185.727 23.496C185.703 23.736 185.691 24.024 185.691 24.36V24.612C185.715 24.684 185.727 24.792 185.727 24.936V25.872L185.691 30.012V34.08V35.052C185.691 37.644 185.667 39.288 185.619 39.984L185.511 41.172C185.391 41.724 185.223 42.012 185.007 42.036C184.959 42.036 184.887 42.048 184.791 42.072C184.719 42.096 184.635 42.108 184.539 42.108C183.675 42.108 183.039 42.084 182.631 42.036H180.759H178.887H178.419C178.347 42.06 178.251 42.072 178.131 42.072C177.843 42.072 177.543 42.012 177.231 41.892C177.039 41.844 176.835 41.712 176.619 41.496L173.451 37.032C173.331 36.864 173.103 36.588 172.767 36.204L172.299 35.772C172.179 35.652 172.083 35.592 172.011 35.592C171.939 35.592 171.879 35.628 171.831 35.7C171.783 35.748 171.759 35.796 171.759 35.844V36.456C171.735 36.648 171.723 36.948 171.723 37.356V38.4C171.699 38.664 171.687 39.024 171.687 39.48V40.344V40.884C171.663 40.932 171.651 41.004 171.651 41.1C171.651 41.124 171.615 41.316 171.543 41.676C171.495 41.772 171.459 41.832 171.435 41.856C171.411 41.88 171.327 41.892 171.183 41.892C171.135 41.868 171.087 41.856 171.039 41.856C171.015 41.856 170.991 41.856 170.967 41.856C169.071 42.024 167.499 42.108 166.251 42.108H165.747ZM191.296 41.856C191.248 41.856 191.212 41.808 191.188 41.712C191.02 41.496 190.9 41.232 190.828 40.92C190.756 40.8 190.696 40.644 190.648 40.452C190.432 40.02 190.276 39.42 190.18 38.652C190.084 37.548 190.036 36.672 190.036 36.024C190.012 35.736 190 35.34 190 34.836V33.972C190 33.252 189.988 32.688 189.964 32.28C189.94 31.848 189.928 30.996 189.928 29.724C189.928 26.316 190 23.688 190.144 21.84C190.144 21.552 190.552 21.336 191.368 21.192H192.448H193.348C194.716 21.192 195.736 21.216 196.408 21.264C197.416 21.336 198.436 21.372 199.468 21.372C199.708 21.372 199.888 21.36 200.008 21.336H200.548L200.728 21.48C201.52 21.312 202.336 21.204 203.176 21.156C204.016 21.108 205.036 21.084 206.236 21.084C206.284 21.084 206.344 21.12 206.416 21.192H207.568C207.76 21.192 207.904 21.3 208 21.516C208.12 21.732 208.216 22.044 208.288 22.452C208.384 22.764 208.456 23.148 208.504 23.604C208.6 24.204 208.684 24.6 208.756 24.792C208.756 25.464 208.636 25.8 208.396 25.8C208.372 25.8 208.336 25.764 208.288 25.692L208.144 25.656C208.024 25.632 207.892 25.644 207.748 25.692C207.604 25.764 207.448 25.8 207.28 25.8C207.136 25.8 207.016 25.764 206.92 25.692C206.872 25.668 206.764 25.656 206.596 25.656C206.38 25.656 206.128 25.692 205.84 25.764C205.744 25.788 205.552 25.824 205.264 25.872C205 25.92 204.688 25.944 204.328 25.944C203.296 25.944 202.552 25.968 202.096 26.016C201.832 26.04 201.58 26.112 201.34 26.232V26.16C201.244 26.16 201.16 26.28 201.088 26.52C200.92 26.928 200.812 27.492 200.764 28.212C200.74 28.428 200.728 28.668 200.728 28.932C200.728 29.196 200.764 29.376 200.836 29.472C200.932 29.568 201.076 29.616 201.268 29.616C201.412 29.616 201.532 29.568 201.628 29.472C201.676 29.472 201.736 29.484 201.808 29.508C201.88 29.532 201.94 29.568 201.988 29.616H205.048C205.072 29.568 205.108 29.532 205.156 29.508C205.204 29.484 205.252 29.472 205.3 29.472C205.54 29.472 205.72 29.508 205.84 29.58C205.984 29.652 206.272 29.724 206.704 29.796C206.944 29.796 207.112 29.868 207.208 30.012C207.328 30.18 207.388 30.336 207.388 30.48L208.144 32.856C208.216 33.24 207.856 33.492 207.064 33.612C206.608 33.708 205.732 33.756 204.436 33.756H202.888H201.808C201.472 33.756 201.22 33.78 201.052 33.828C200.884 33.852 200.776 33.936 200.728 34.08C200.632 34.2 200.584 34.392 200.584 34.656V34.8C200.584 34.92 200.596 35.004 200.62 35.052L200.584 35.844C200.56 36.012 200.548 36.264 200.548 36.6V36.96V37.284V37.5C201.628 37.5 202.732 37.464 203.86 37.392C204.964 37.32 206.056 37.284 207.136 37.284C207.208 37.284 207.268 37.344 207.316 37.464C207.364 37.56 207.388 37.68 207.388 37.824C207.436 37.968 207.46 38.124 207.46 38.292C207.508 38.652 207.58 38.988 207.676 39.3L207.928 40.344V41.064V41.172V41.46L207.64 41.712H207.388H207.28C207.016 41.712 206.848 41.7 206.776 41.676C206.704 41.628 206.62 41.604 206.524 41.604C206.476 41.628 206.404 41.664 206.308 41.712C206.212 41.76 206.128 41.808 206.056 41.856V41.676L205.624 41.712H205.084C204.988 41.712 204.916 41.688 204.868 41.64L204.58 41.604C203.692 41.604 203.068 41.688 202.708 41.856H191.296ZM223.33 42.864C221.218 42.864 219.478 42.672 218.11 42.288C216.286 41.784 214.87 40.812 213.862 39.372C212.734 37.764 212.17 35.424 212.17 32.352C212.17 30.48 212.422 28.8 212.926 27.312C213.43 25.8 214.162 24.528 215.122 23.496C216.082 22.488 217.198 21.72 218.47 21.192C219.742 20.664 221.122 20.4 222.61 20.4C225.106 20.4 227.698 21.18 230.386 22.74L229.918 26.772L229.09 26.592C228.994 26.568 228.622 26.484 227.974 26.34C227.326 26.196 226.738 26.124 226.21 26.124C225.082 26.124 224.242 26.508 223.69 27.276C222.97 28.236 222.61 29.784 222.61 31.92C222.61 33.672 222.862 34.992 223.366 35.88C223.846 36.624 224.494 36.996 225.31 36.996C225.886 36.996 226.558 36.804 227.326 36.42C228.07 36.06 228.79 35.64 229.486 35.16L229.846 40.272C229.006 41.064 227.974 41.688 226.75 42.144C225.646 42.624 224.506 42.864 223.33 42.864ZM244.561 42.108H242.905H241.033H238.657C238.441 41.772 238.297 41.16 238.225 40.272C238.129 39.48 238.081 38.328 238.081 36.816L238.117 32.856C238.141 31.896 238.153 30.372 238.153 28.284L238.045 28.176H234.481C233.953 28.176 233.605 27.576 233.437 26.376C233.341 25.728 233.293 24.78 233.293 23.532V23.064C233.341 22.896 233.365 22.632 233.365 22.272V21.552L233.401 21.264L233.545 21.12L234.193 21.156H234.913C235.969 21.156 236.773 21.144 237.325 21.12H239.665H240.313H241.537H243.085H244.633C244.945 21.144 245.389 21.156 245.965 21.156H246.865C246.961 21.108 247.117 21.084 247.333 21.084C247.501 21.036 247.657 21.012 247.801 21.012C248.257 21.012 248.605 21.036 248.845 21.084C249.325 21.132 249.685 21.156 249.925 21.156L250.861 21.12H252.265C252.985 21.12 253.477 21.132 253.741 21.156L254.245 21.192C254.269 21.216 254.305 21.252 254.353 21.3C254.401 21.324 254.425 21.348 254.425 21.372V27.492C254.425 27.636 254.341 27.792 254.173 27.96C254.029 28.128 253.885 28.236 253.741 28.284C252.949 28.116 251.917 28.032 250.645 28.032H249.277C248.917 28.032 248.677 28.488 248.557 29.4C248.509 29.664 248.485 30.048 248.485 30.552V31.632C248.485 32.112 248.497 32.472 248.521 32.712V33.72C248.521 34.704 248.473 35.616 248.377 36.456C248.329 37.08 248.305 37.536 248.305 37.824C248.257 38.112 248.233 38.508 248.233 39.012C248.233 39.732 248.209 40.332 248.161 40.812C248.137 41.556 247.861 41.952 247.333 42C246.757 42.072 246.421 42.108 246.325 42.108H244.561Z" fill="black"/>
</svg>
